<mxfile host="app.diagrams.net" agent="Mozilla/5.0 (Macintosh; Intel Mac OS X 10_15_7) AppleWebKit/605.1.15 (KHTML, like Gecko) Version/18.4 Safari/605.1.15" version="27.1.1">
  <diagram name="Page-1" id="utDV1Wjn-TLE1LKY4s-M">
    <mxGraphModel dx="937" dy="597" grid="1" gridSize="10" guides="1" tooltips="1" connect="1" arrows="1" fold="1" page="1" pageScale="1" pageWidth="827" pageHeight="1169" math="0" shadow="0">
      <root>
        <mxCell id="0" />
        <mxCell id="1" parent="0" />
        <mxCell id="VCE-eFX-D-IUiVNwlB2O-1" value="" style="shape=image;verticalLabelPosition=bottom;labelBackgroundColor=default;verticalAlign=top;aspect=fixed;imageAspect=0;image=data:image/png,iVBORw0KGgoAAAANSUhEUgAAAGIAAABkCAYAAAB9/OUTAAAAAXNSR0IArs4c6QAAAIRlWElmTU0AKgAAAAgABQESAAMAAAABAAEAAAEaAAUAAAABAAAASgEbAAUAAAABAAAAUgEoAAMAAAABAAIAAIdpAAQAAAABAAAAWgAAAAAAAACQAAAAAQAAAJAAAAABAAOgAQADAAAAAQABAACgAgAEAAAAAQAAAGKgAwAEAAAAAQAAAGQAAAAAmreI3AAAAAlwSFlzAAAWJQAAFiUBSVIk8AAABplJREFUeAHtXctuGzcUpZpGkBK0qLVwAW1SwN7lD7rpeNFVN/qjKH/kP+j4L7JIgKILL1pUKpq6MmwD6j13yCE9kSVZ5AzvQJeA5z18nMNL3gdHNkaTIqAIKAKKgCKgCCgCioAioAgoAoqAIqAIKAKKgCKgCCgCioAi8CUC57PC4K/nadCr+gPwtXln61xgP17d8+lq/JL3vBmY97QvzcfL0l+UfdQPIiwBBHoBOE+WN0TAHSO7Gg/rY1zA+S2Rsjh5zfcNSPl4Oa9O5G5lExEQAPBdWhLIjyTA3aD9xD53srgxy0lFBpMinBC5RJzP5hiGptd/M8wB+KXt5WWAvz/Ee0j0LkhxhEgnQyYRBOb4v/t3kIJ6mDmkR1syHSHX0xOzevWyF0MVd6asG5Aw/WV9Zn5cTyY/r83Z7NdorYjyQF7IE3lTfvOsbRRfeJOElIAFeSsZu3rC2Ww9HReVJKQkwZVrJQNlkKRBMgp3K/f+q9wVqMsn4DGW2zkBNsC8vpfq4NPlBU3aJbJj7crbJKlKODgfGUSg9xMo0HCsdnN1cIt2vUiTPjQwlEVJjFUugwhCBD2U9f5DtKNd4If3ydomG6REWawaC5EKGURYaViNhiFk7R0T2UFZRXsF7Z9zfiKgzYT+ojbmhiYelVTwVS5bwKSdnwiCY3x754elJmjtnZfIGmVTKrDJmUQQkQWAgbmChjaCNK7NT1nqEBSanwgCAWDYMbsM6tb2YRnME22XtTP//ETsrOJxPKBECOH5mIkoMFFjniC3ensG5J5E5yfCTpqsvQgxrvbELulj+Ymg2DImTdZekjZtR2ZEeudlbqlSfiKscYUYNMekOzSuUCb7trowIreQgFv5iagqSP4fWgTQlXFlPb21b2sHSF3clkFE6BHFPNG2VHTt29qDSRlEWI8opKL1OEEgDZLi1zKIQI8JpMLOFfM9OtLzHoGDEYsSXNzjeW+3+vSLVnN/TuaLD789fP92cDsaFtPrpcEe52bxoXxONk8+SyQg+PTm97/Ywbh6NRS1mkMOEUCQQH84fVsMBuaH0z/+SUeGlYTTPz+bf78dmcXktSgS0HSZ65oQ5F/eFNGLwzDpkxRgqIOUQUvimDXFrtF4SUkmEUDI9uIAQJ5HGLxter/TuCwBbqmmXSlYGoEkoE1yiUDt7LgOTcpJBy6zEYbV3kjwEz2OJxSIurmFylYKKhK3EciZ5dvIJsLhEhCCSyAFqi5SHdzhMyzTv+N7e6+Vte/l3vWDCIdSRQiiadzrcRnWeBjgsavES6jD/BrZKLwXvukXESGYbi7w8WYPeE/AD5ujx4qAIhAi0M+hyQ9LaEsRNKjk4x4OTbKJqACHUcYTtAMc6qlL1nW+acJ2j2DivuITVV8dJjv2AJ4MMfsUa0YAGpE09/Ei7jnV1eW2SYV19/Asx6XpgrU/KpsCDwgiJr9EePAZeGcJO3sAeMEmQGp8wFjyRWw2GHXuHrvV6cSRuYEYJzFZPwfOQ0Qw5MAP5KxggNQAvWRAY2wC2B5IdnjDsOaGsy+sdV9O9Q6/2M2mWyKe6P1oau0Lqsbz9npn0Amo2MJJzEZSOhy6uiHCErCp9z+yhHNoO15i6s+B3fDFcwqkpANC2ifC+onwUQjGff7Etvq5BozNaGQJiRCRbF2dlGBewUTfBSHtEVFJAeIKtee09ppKI6DZCwJC3JDVNhnpiWgMQ2hjMP7LkoAmAc3zDglJS8RTw9DAXIgagpqA7zqndiX5JYQt5aSLWdvKIjiPuDDmgofhi/ccEaOFAVvqIP8WYum0kOHzNyNauHzPH0EmX9yQBAWQkPpnG5JUrIVMqK1t/JxEmqEJvxhAWpHVMMTGhZPRYhc3QKu6nn5nSOqjcYxfYIYe4n8xAJW6SNZgqRmR1mc1QFLJyQFZGYlRtY0nIgzcQy09hgTbh9oKbZB9Y95ReXDr44kgNwEH86uP1cuDa9K/F7mt1itcxFY/BRFcB3ZVSLKSY5HZ9T619ZE3OHJ4iiOCCscYCd/MsSa0neeJSADiiIgsXF/3CCgRHousR0pEVvh94UqExyLrkRKRFX5fuBLhsch6pERkhd8XrkR4LLIeKRFZ4feFKxEei6xHSkRW+H3hSoTHIuuREpEVfl+4EuGxyHr0dWzplU/e/j+f2Mx6+L5dsxVd8zgiEAg6n13Qr7xEV6SXGdB6rbrtxxQU6yVZWmlFQBFQBBQBRUARUAQUAUVAEVAEFAFFQBFQBBQBRUAROE4E/gf3V/o+DcZCgAAAAABJRU5ErkJggg==;" vertex="1" parent="1">
          <mxGeometry x="415" y="260" width="58.8" height="60" as="geometry" />
        </mxCell>
        <mxCell id="VCE-eFX-D-IUiVNwlB2O-3" value="Client/UI" style="text;html=1;align=center;verticalAlign=middle;resizable=0;points=[];autosize=1;strokeColor=none;fillColor=none;" vertex="1" parent="1">
          <mxGeometry x="20" y="265" width="70" height="30" as="geometry" />
        </mxCell>
        <mxCell id="VCE-eFX-D-IUiVNwlB2O-4" value="" style="verticalLabelPosition=bottom;aspect=fixed;html=1;shape=mxgraph.salesforce.web2;" vertex="1" parent="1">
          <mxGeometry x="35" y="295" width="40" height="40" as="geometry" />
        </mxCell>
        <mxCell id="VCE-eFX-D-IUiVNwlB2O-5" value="" style="shape=image;verticalLabelPosition=bottom;labelBackgroundColor=default;verticalAlign=top;aspect=fixed;imageAspect=0;image=data:image/png,iVBORw0KGgoAAAANSUhEUgAAARoAAACECAYAAABPqOQ9AAAAAXNSR0IArs4c6QAAAIRlWElmTU0AKgAAAAgABQESAAMAAAABAAEAAAEaAAUAAAABAAAASgEbAAUAAAABAAAAUgEoAAMAAAABAAIAAIdpAAQAAAABAAAAWgAAAAAAAACQAAAAAQAAAJAAAAABAAOgAQADAAAAAQABAACgAgAEAAAAAQAAARqgAwAEAAAAAQAAAIQAAAAA35V4DwAAAAlwSFlzAAAWJQAAFiUBSVIk8AAAHf1JREFUeAHtXQm4LUVxLgQUZFE2BWXfRRBkUVwAMeLCEmSRKIYtyiZqYkIECfAFo35CghBMTIIgIIGwiEYFERBZVIKAiGwqyi6CgAg8URaB1H/7/u/U6dvTs5yZc885t+r75lR1VfX2z1RNT8/c90ScHAFHwBFwBBwBR8ARcAQcAUfAEXAEHAFHwBFwBBwBR8ARcAQmHoEFJmCGkzCHCTgNPoWOEXi+4/Y7bX4Ug3QUx9TpSfDGHYEOEBipxDQKQT0KY+jgPHuTjsBIITCriWe2gny2+h2pM++DcQRmCYGhJ51hBnxXfXXV7ixdA96tI5BEoKvk0FW7fZMYRpA27aNpvb4JesERmGMINE0cTetVgrfLYK7Tdh3fShOLnLpuP+rOi45AbQS6DPQ6bdfxrTzJrgKwSrtt+VSerDs6AhOOQJUk0ZZPLSirBHutBtW5rM2cPWfjOKr40Ne5IzCpCAyaMMrql9lr4dpm0Ja1VWRP6VO61MSq+qXqus4RGDcEqgZ/yi+lw/yL9MSmzE6/LG8rUMvaie1xGYOsqosnlKoX+3jZERh3BKoEfMqnii7lY/Eqs1vfpNxGkObaiG2DluNJxO3Fdi87ApOEQFnAx/ZByxa7uC1rK5UHDdRc/dhmy1VkDN76cTIpHW3OHYG5gkAq8GOdLVeRgZ31i7HM2WLfvvKgQVtU3+rryEW+GLS19U1iulBmT9VxnSMw6giUBXdst2XK5JhrXdniY+tafak8SHAW1bX6lJzTpWyYhNWnyqUTdQdHYIIQiAPellMydeSAgjK51cUyyiTrT10pjwO4tMK0Q1E9q0/J1NXl6JZ17BhTOmt32RGYJARSQW51lJtyYMW6sWxxtD5WXyg3CdSiOlZPmRwDgMyy5VamX4pbHWQQ64aS/zoCk41AHOC2TDnHUzbqgBxlcquLkbU+sW1GuUmgpupYHeUcn7Itccjzf5wxIlc4Ao5AJwjMO3qBRacbRpJgoijjqEKf6epTLKWz9j55ob5SeYHJo8gztrMMHsssF7XlekfAEWgXgRdoc6kEAR3i0dricjySMnufPzoelFIJw+ogs0yZfNC+vb4j4AhUR4BxR46aVmY5bhE+A1GdRJPqzOooWw45Vbb6gSbglR0BR6AyAow7y1E5VaaejcMnppQu9pkq1310SjaiSnZoOWXUgZw6YHNyBByB4SBgY9L2yEcm2u2jFHS02zq15EESDQcVd2j1kFMHVlLWL27Dy46AI9A+Atyjea6gaSYUxCZl61qktz5JuWqiySUF2sjREeSig0nG+icH50pHwBFoFQHGHGKwKNmgQyYZ+EMmhy2mnG2+LzpsQhxwXBf62EZdzJv2HffpZUfAEaiGgL3Jx/EYtxDHMe1FetqTvK1gjzu3k0DHLHOi5MlBudIRcAQ6QQBxyNgjZ+wyRsk5ANpZbsTRWRnlOrI2K6NNlHNHlb7LxuZ2R8ARqI6ATS5FsWlbszFtZesDOWeb8m0S7LlGYeMx1YEZBPV2svRx7gg4At0jUBSD1GMElMGLKGdL1mmSaOKGijq1A45l9NtG3/FYvOwIOALFCDDu4nhkDJPHLRTpY7/C8iDBbjuHHB/olD6xjeXCgbnBEXAEWkeAcRdzdAQdKLZRT9uUU92fQRJNWV8cYGrg1JW14XZHwBFoDwHGXYqjF+ibUrZuWaLJVtYRFdmpB88dTSfl9RwBR6A+ArlYtDGbapn2lK1UV5Zo4gbKOuNEUM/KbIc68Lp9sw3njoAj0AwBxJyNQdsK9dBZ2fpYGT6VqWmw2044qFjHQcT2uEw/546AI9AtAnHsxWX0Dh2pzE6/Ut400ZQ2rA52kEVylXbcxxFwBNpBoCgOrb6dnqJWukg0GHQR0UZe5Od6R8AR6AYBxh55qpecLeVfqms70XCA5BwAytRRZpk+zh0BR6BbBOLYY9n2yrgkt7bGctuJxg6Ek+CAU2Xr77Ij4Ah0i0AuFhmfnYxgkETDQXNgcZl6cNosp2z9XHYEHIHuEEDMMe7Ic73FPnE5V7fPNkii6WvIFMoGU2Y3TbnoCDgCHSBgY9DK7Cqlo60RbyvRxAOzZcrkGChkW240eK/kCDgCtRCI444xGOtrNVrFedBEw4Gm+koNPuefasN1joAj0A0CqVjMxWzKv/LI6iSaoo6K9HYQ1geyLVs/lx0BR6BbBOL4qxKLRT6xPi7Pn0mdRDO/UktC4aBaat+bcQQcgX4EZi3m2k40uYnkbP1wjGFp3zeI3HmEyM2HiCzYNqpjiIcPeSwQyMVkzlZ7crn/BaGtjtpqJzu5RRcW2XdzkdeuKLLBCiKrLSPym3kitzwQjn/7nsjDT2SbGMi43GIiy0wfL9AZPztQa155UATW0PN/8vtEXqzXxaP6P7zvdlrgg7Y7ofU7j9FcoukC004mtN7yIqfqRbXuy/uHvOJLRXC8Y12Rv9xE5MBzRS65rd9n0kpYTR2zgwgS7xk/EvnBnd3OcNj9VZ3NHpuJbKw3HdIuG2riuZql0eVDxLOTWCxCdtiJBuPABHkUjauy/pUvEbnsoBBYqPTrx0S++wuRXz4ssrre1bZeS2QlTTYvW0Lk3L1FNjtO5BcPVW5+7BwX0TOKxzjQHb/tPtEMu78ws/Lf3Tbq9/mL145HoukYT8bdUJMMzkSTRNPWIFtp5xNv6yWZq++auUR+ySIiZ+8l8sbV9B/A0bv9P2wjsveZ/RehlyYLgTevHlaydlabryKy6tIidz1itS4PC4EmiWZYYyvtByuV3TcObo89KbLTl0SeeLq/GvR4Pr/tMH1ef6H6bCDyiSVF7n88+H17/5CoPn2JyHu1rbevE/SnXatJ6YIgL6ApcX9dJWz/apH19PEMy9vbdbVw9o9Fvvh/+l/+4f/yM7SaXtAHby2CC34x7fPm+0VO0mX7124yTtPiy3WldeifiWyykshay4k8OE/kJvX/r6tEvndHv/8qS+nYNbG+ToMGK7l5Ordr7hH57KUiN/5a5Au76t6U9k3aUx8f3rJmKP3P9eFR6r16Zz/wTSK3/kbkW7eKHPWu0NYDiscup4SV4FrLinxgc5GttC4ePV+4oMivHtWVo64UP/MdkUf+ENqs0h/HAuzes6HI+iuE/u7V9m59QOep+F11J70Cr3JO+mv0lzBH0J90o+yoi0T+adtQxqrmaMUqpoX0fB7wRpEd9dpYU+eO833v70Rw7ZA+qe0Aa1Cdc8a5HHK+yIavCNffhq8Uue8xkavvEjniWyK/0z0kUB08Q43x+Z2tRKOncnDaSE/YQhoEoDOum5lkgkXkcb1gvnqj7tNsGi6iNfRiYqLBSgf0lX0C5++KGsggJJWvf0BkyzVCmb+bvlhkU00O2AT+1CXUBn7FR0KCoXYLrYtjkXNEEPCk16+s5T1Fll2cmrCJjY3s7dcT+duvi3zph8H2MvXBI6L1xT4MAvhpDSis0rZZJwQBW8MdHAcIm+LYs8HjJDbMcSBJI6hA6BMBh8Ry9cdEFl4w6PmLJIgDiWvz4zWIn6vWH+qfsLOO73VsKfB1XiaCY8f1Rf5Rg/j4K3r2snPS85wpvUivaCQM0GW/FDnlGpHD3y4CfVGiOf39ItspjpaW1vNrCRv9oDrnDP6cy8UHoNSjtRVLHJuvqsdx9fDstdKqNH0ltNrm/Ma6TjSdDt7evS+9bf6ckgLumkg0IKwMvh/Evt/nnw8JCcF3j97RQH/1+l6Swf4P3l4hsNEWEt0K0wkpeIdfrGKwRD/vJyGAd35N0H/8rb1EgzdTJ+wSEgf6/by2izlgQ/sIDYzFXxTuxP97U1hBvE+TApPM5y4XOf+WEKj7650Yb1VAh10QEgvqg7AKwcoIdLkGXUyY5906zm//LKzUntVxLKMBhiTz2ydEvnytyA/vDitBrLrW1sSAY1tNgt+4uVp/mDuTzO+f0jlfqftoj2vAriKyh2KIx9kjdbzf1PawSowpdU5iH1t+16tE8LgM+orij5vMRTq/P9eEhtUKbg7X3Rvs+N1qjV6SufYekX/+rshrdOVx0JtFlppONod+U+T6X+lYa56zXi9BwlxwPm/WpH+gnjecTyQbYHTODdXwjNusWdYZtEJoR2dTnbpONNVH0sBz1WV6le6f15NTEpensC2hQZyiw78VAt7a/nrLUHrqT3oH/w9dUmvwgvAohEeT2x8OZfv7Y70odzy5lwCwGsFjFFZS6HueBtwOegd9lSYV0L9cpknl4iDjLgwf3IXBt9OgPv06kZU1OZIQDHhERMBglUI6Vy9WJDkmGqyG/lUDu4ju1MB+6xdCUqEPVjU76div1gRjH0OxuX7lR4IXAhZUpb/D3hZ8n9MV0LYnitxwXygjieHx5DDdM8OqFI9zB38j2Oxv6pxYeyxj1QJ68pmQjCEjiJFoQLDbRLOxJh7SnmeERxokXiQZJBvQlXeETyWw+qpzzkLt8Iv5H3Re73xdfZfIBfsFG25YGGMVPG2b4yTrZTUUspnUygN1jh160jPPUkpz7DOQ4scC6PGmCqsKS3g0wT4QCHciJhmUsS9z6jUz91Fg2/mUXpJBGXdUEp7vQfjWh4Rnfzy/83jo97ToimjpIGPlQTp/X5E3rcZSc77fOf1JBi3hkehSxcImGTxGYO8Id2TQSxcNvOwXSQ8rINCFigGTTNDonsQPQkJAmX60gafOibXHMsbJPbaLfx4SOnyAP1Y2oF109YDHYdKS5qbDx0jYkARJSL6guucs1Aq/J2vStzcF7L/9QW8WoOWXDHxIv63FX53xmlCtU200fLGBSVpucZGfP8jSTI6NYNIDidUPViExYT+DFx82T6sSL2r628TBJLf69KoAPufuTc+ZnMv3M64X+fAW4aLExvGF+4v8VMd0rK6GcDdsQngcSBGS68feEoL2FRoE3AdL+eZ02PchpfAFTvc8Gh4fsOqLKVUn9rFlPIIQX3zCYBMDNuSxX4LHlW3WDo+LqGtXpIdvE1aWSKj4DgeElcht09dV3XMWWgi/8TUBLa6LVfRGsrBJfLbOJMljnWhwkZLWX173XfQuUUSbrdyz2NVBTztTwj4JCW8wmhJWCTFhtUTCRi1XC9SBQ3fF7UGDPZMtP6+BsG24KyP4sYw/6b3hw7RDz7c1m8vYDL7ogP7Xw3jUw92Xq7GqrWNFQ8KjZ4q4oojf3KV8y3R8bILf320djlQd+OHxCITHItLum+gGuR6Wvnydzl0fw0B1z1moVfybui6KvTuzDGWFM9aJxiYMbM7+51Xpk4EL/j0bBRsSBvYbqhDfTMEXAdgm2aX5drp3wVfGuT6wEtv37PDaHa9j/2arsNr4kO4l4LWt3YdCO9i8rEt76Z2cc8WjIV774085QI98Or+6ifvDZjTJrm6owyPJotPJyK76aK/DsfrEBnMVwmY298r4cSPqYfWCzWnQ05oYv6j7cHitTWpyzli3CY/xbNLGqNQZ9qKtwaVfDBWec/l2CG8KPrrFTF/szZy4W7iwYMXGapWghi8ChSuZXTcMr0ihJ+FV52YrsVSP3/lIzx9vlOrQg7rk/uTF+th0eaiFlQ9XX3ZlhOCrS8CRdPDXe0kG3+2kLvxcf3i7hIAF4fulxc0KBzp8vcs3RD+bfjyBvgnZL4E/eJZu5h4288AGNAgrE2zsgjZdMXCsKjc4RjftT9Bvmo7VR9Qj9ZslXSX+cXo1A69Bzlnopfw3h2d57dH1GHaiaRUJLD3xBob0qe30M3N9lEDg4rUl7vrYy9hh+qLC8v0Y4896RRzL+fNvDVbsAZ23j34st3J4VMG3IRcfGD7yK6qf03/zlt5G6JHvCH82gD5wl3+1PgbidTK+3+H3HBfsq6+UPxjmBZ/ldVOZG8LYR+LmLZb5lN+6lsg71xXBK1+7X5Ebl03CB2niXnIR/TOONXVj9qDe3d7Wz/WHoDn7huCNvSa8ZcGY8dYKnw0ct1OwYSOfr+Ft23VkPjYhMVyg5+xZvTbiAx9YkujP/TpgfsPfi5y1p36CsIfIdz6kr/ffH94sct+n7jljX3V4Ds867ZT4tnrDL+lryjzWj06YAXbysf+CV80gPCLxMSlowi/2OPbTxw58kVmHPnNJCNZF9C6Ij/ZwAVqyz+1WXyZjtfS5y8PrXbRx7I7hiOvhDQ+CH3+rhQ/c+KWv9btE37DYBHHN3ZocNMngbcY5ewdPPALgi+MyuvCnIu/fJHgd9U79slaPMsr1B/zw8SESDT4SROKPCTcL/F1WU9pE28WnAyC8YWKiDZre7/fvDB9qrqC4bLG6fgOlHKsc/MElCAmFj40o448y371B+Chyt1PDCrfOOUMbTSiHZ5P2RqHOWK9oACBWNR8+T98S/Hf4qIqvDAku9nHwfcIbjk//5TYfjYpej2NJv/W/i/zkvv4NW3ynceaP9JuVC0NPz+g4QLiL2uUvdLZt9gc9/nRgnzPDR3MoW8KexYlX9R4N8eUsPhi0hL6QaPGoYAkbw/E+FB8BcuNEG/gQ70idEz6uI+HxBx8f4uM9kJ0Dyrn+kNg3V+yRwIAZaeptzkOa1E4POFAPzvYtbtYey2su19OcdX1PjqWpFdb0qgZ7MUhO/PMErHY/+lWRXU8R2euM8KUybk4grArxYR2ozjmDf24u3AzmOYE/KIdn8Bi/39wSKraxbDlkeyBxoQyOQ+8RfRwrKOimjiUOeV7vxe0SHiNWXSrcQRFsqdeKtkd8i4PP0+3ftVi7lbHHgM/wn9Kl/h3a9pN6cVrCfgMu2FgPHzyCIDEU3W2xOYk9FX3amHrtaTeibR/4qnnZxTQRPB0SVKov+uMjP6yIsJnLDV3YcuNkXdzd8ecL+Pdc8BodX0PjkQ17QcAqTqaoV9Qf28QeD+aINvDKmG9zaCevc05YB3NC4BbhSz9w+AJnPJbe+PFgwRfL+DjQ0me3F8FGO+jdJ4fvekIp/FY5Z7m5YP8Qn13gGk29dSvD046lijzv6AXWUT89k1MHrl7IitoMDh0gIodsDy1OlS2HDILfDEJSKKLYxrLlkO2B5IIyOA4kFMs7TzTan5MjUAkBJD3sy4BwU9rxpN5HmbihnLZ7+CNQ2Nf+tAj3c1AeR5rNRIPAd3IE5iQC2BfC36Rh5YYN6lsODasLPGbiA0J+rIk3leOeZGb7BGO14eQIzFkE8Hdd+HgPe0YgPOLiw0QkGWywH3OpfiX9tWDz3+YIDHtFk3x+az58r+kIDIYA/mJ8t1N1T0/3srCqwf4R9o7wfRZWMam9qMF6nJu1h51o5ibKPuuRRwBfVV9778gPs60BDv2G749ObZ06b8cRcAQKEfBEUwiNGxyBOYHAUFY3nmjmxLXkk3QEZheBYSUamzWtPLuz994dAUdgKAh0nWg8qQzlNHonjkBlBGYlJrtONEWzn5XJFg3G9Y6AI5D+04ECXGrH72wlmoLxu9oRcAQ6RKB2gmhrLE0STVuDbaudtrDwdhwBR6AjBJokmkGHggTDY9C2vL4j4AhUR4BxN/Sb/LATzdAnWP0cuKcjMKcQGGosDiPRDHVCc+pS8ck6Au0g0HmM5hJNk85zdXK2duDyVhwBR6AOArmYzNnq9DHlm0s0tRurWaHVidTs290dgbmIwKzFXJ1EUzTIIr09kdYHsi1bP5cdAUegWwTi+KsSi0U+sT4uz59JnUQzv5IRChtWH9hie1w2TbnoCDgCQ0QgFYu5mE35Vx7uoImGHcWDsGXK5KgD2ZbZjnNHwBHoDoE47hiDsb71EbSVaOzAOHirs3KZ3fq67Ag4Au0jYGPQyuwppaOtER8k0cSDict2QLRZTtn6uewIOALdIYCYY9yR53qLfeJyrm6fbZBE09dQooBB8YCZMgdLnqjqKkfAEegAAcZcKhap66Db8H8utdmwnYht106CMn2tn8uOgCPQLQKMP/RiZfbKuCSnfiDexYomN0DayAcavFd2BByBWggg7hh75KkGcraUf6mui0TDTjmpHKevc0fAEegegVws0tbJKPDf1+YottsyZJYpI3FZmWVwHPwvcnMyfcnRHmS2a7mq+8aAMgg+IPJQ8t9xRQBBYGlSzyvnSY45U7Ycsj34f2SDpw7+H9uwFcloj3XZNsqUVeyTWQYnwTdJdf9fJzSUO8nsCD4coPWnDhyToB/kImJ98PhAHWu3bVBvdbMpj9p4ZhMLXidtj2EcMC6be2xn2XLI9mBCAE8d9KUfyxZ/q7Oy9bEyfCpTWaJBY7mTV2SnHjx3YOIg9GH9qLc2u6qhnmMjpx7cyRGw18Ww0cD1PAjZ+pQZI2iXsk0ekG3Z+qT0tJOzXfCY4NOYyhJN44a1IgYWJxBOKOYAwRIvEPgxwbA92HigDn1jGWWQtQeN/85VBLq6FnBtDkqpNqyOMnjqYCKxHDLLqTpWh/Gj3JSydQdJNGiYJy7VCWz0AY8PAFBEbJdtMNmgbG2oH5fZJvUsO3cEcgiUXS+pazzXXlNb3I8tM4bQNmVwm0wog8eHrWNltkdubZBJVqauEh8k0bADdJ46SdRzcOA8AACSB8vg0JHYHjgO2CmTwxcyiDyUwm9KZ+0uOwKjiACu9Ziosxxy6kAcQc8kY31SOtrRJ+QUFelTvkldk0SDTouC2A4IPixTRhmTZZKBTGKb8KEdOruagS909I057CDqQ8l/HYHxQoBxw1GzbHksI5agw0HZcsrWHreB/tgGbdDFlLPFvlPlKokGjRYFrrVZGY3bwVC2HBNHEgEHsQ/LIbNdyLEN9UDUh9LMMvXOHYFxQIBxwrHaMmSWKcecSaWIx/62zD7BoSdZmTrynG3Kp0qiYWM5jo5ssNuOoWfZJhcmGXLWp3/RSsb6cUzUFZWpd+4IjAMCjBeO1ZYpg/OAH2Uml7hMfczhB6I/edD2YpflRrxposFg4uDGADhoa6OOA2TZJh3424SDMvuAzANtQAbFPGjDL21W57IjMC4IMEbseKlLceiKDiYW2K0c+9u+IMOeoiJ9yne+rmqiQeNFwUsbORrPDYYJBn6Q0W6cZKCzhxbnlymDg1LjSumCt/86AqOPQCp+rI4yeCxTZ3mcYOKy9WV7QIkyeQq5nG2+f9VEM7+CEdBBKqCtvmgQNsGgSZZtcmHb1MHPyiyDW2I9q3PZERg3BFKxQ12KWx3k1FE3wcSYsY9YX1oeJNHYxjEABLjlsDPoiwZYlGBYDzwl27Yhg+gXSv7rCEwGAnHs2DJkllMydWWcSNEPZcgg8lBq+Fsn0aDDOJitjrLlHBbqQV9ErAM/HvCNZerASfCpSnV8q7bpfo5AUwRyMRG3aX1TMnTUUyZHW5RjHttYtjyWUQahrUpUJ9EUNYjO4gC2Og4GPpTZFv1YPy5DTxvqFMlsz9qpc+4IjCsCcbxgHlYXyyyDx3JZmRjRj2XwlM7aS+W6iQYd5oI5trOcGihtHCTL5OiHMn3ivuMy/WJe1S+u52VHYBgI4DqvQrGfLVMGryujb9bhOOIy9eRldvpN8SYBWFTH6imTozPILFtuZfqluNVBBrFuKPmvIzDZCMTBbcuUczxlow7IUSa3uhhZ6xPbZpSbBmpRPatPydTV5Rg469hJpHTW7rIjMEkIpILb6ig35cCKdWPZ4mh9rL5QHiRQi+pafUrO6VI2DN7qU+XCCbrBEZhABOJAt+WUnNOlbIDM6i2ERXrrM0OOA3iGQ4miqL7V15GLfDEMaysaVhWforqudwRGEYGywI7ttkyZHPOrK1tMbF2rL5UHDcxc/dhmy1VkDN76cTIpHW3OHYG5gkAq6GOdLVeRgZ31i7HM2WLfvnIbQZtrI7YNWraDj9uyNpcdgUlFIBfssW3QssUwbsvaSuW2grWsndgelzHQqrp4Uql6sY+XHYFxR6BKoKd8quhSPhavMrv1TcptBmlZW0X2lD6lS02gql+qruscgXFDoGrAp/xSOsy/SE9syuz0y/IuArWszZw9Z+NEqvjQ17kjMKkIVEkAOZ+cDZiV2Wvh2lXQVmm3LZ9aE3ZnR2CCEaiSHNryqQVjlWCv1aBxrtN2HV/TRVbsos1sh250BFpAoEoiqNtNnTbr+FYexzCCsWkfTetVnrw7OgITiEDTRNG0XiUIhxnMXfXVVbuVAHQnR2BICHSVCLpqtw+W2QrS2eq3b/JecATmKAJDSS4W21EI+FEYg8XEZUdgEhEYenKxII5qkI/quCx2LjsCo4rArCaVFCiTFNCTNJfUuXLd3ENg5BLG3DsFPmNHwBFwBBwBR8ARcAQcAUfAEXAEHAFHwBFwBBwBR8ARcAQcgcoI/D+cn4TbTC0JvAAAAABJRU5ErkJggg==;" vertex="1" parent="1">
          <mxGeometry x="358.95" y="300" width="170.91" height="80" as="geometry" />
        </mxCell>
        <mxCell id="VCE-eFX-D-IUiVNwlB2O-7" value="" style="shape=image;verticalLabelPosition=bottom;labelBackgroundColor=default;verticalAlign=top;aspect=fixed;imageAspect=0;image=data:image/png,iVBORw0KGgoAAAANSUhEUgAAAPIAAACECAYAAACqE3Z4AAAAAXNSR0IArs4c6QAAAIRlWElmTU0AKgAAAAgABQESAAMAAAABAAEAAAEaAAUAAAABAAAASgEbAAUAAAABAAAAUgEoAAMAAAABAAIAAIdpAAQAAAABAAAAWgAAAAAAAACQAAAAAQAAAJAAAAABAAOgAQADAAAAAQABAACgAgAEAAAAAQAAAPKgAwAEAAAAAQAAAIQAAAAAH74dlgAAAAlwSFlzAAAWJQAAFiUBSVIk8AAAGb1JREFUeAHtnXmsb1V1xzejgCgioEwKD/GBohZsoRUHYkSRatXWpraaYvpP0yb9p0mTDiTVWtOmDtikrZ2SWq20Ntamg6VOhYcgCAqKA4jAY/ChCDKLzNL9ued+72/dffc+8+93f7/fXSs5vzXuvddaZ69z9j7n3PdCcPAMeAY8A54Bz4BnwDPgGfAMeAY8A54Bz4BnwDPgGfAMLEkGdluSOBTGssWjuBxPLwNPTK/r2fU8rxN/Xv2a3ZnxkeY9A3N1AZiHgpkHH+Z90rh/i5GBTSvuzSqizRp3MaaDe7kMGZhpUc+yoKY11rT6XYbJ5DF0y8C0im9a/a5FN4si6DtG33ZrwTnhGZhSBvoWZt92jWFMu1i69N/FtjGwaDB2f23GdJvFyMDYBdWlvy62rbM5rcnett8muyZ960Dd0DMwUgaaCrFJLzfa2sm+Fk+jUJr6rNPX6RRIGxvZOvYMDMlAm2Krs6nT4VeTvrXvYxdFXX8lXVe5Da7U1to47RnokoE2xVWy6SrHr1KbLj6Pto9sKqhUn/I43VaWBphrl9o47xlok4E2RZWzaSPL2VifmvTWdgM9VhGU+snJrczSONfE2wBSW6tz2jMwJAN1RZXq6vhUh085WZ28VRxjFEOpj1Ru+TY0AVg7G1BJbm2c9gwMyUDbgrN2bWh8snbWx5Lc2mTpoQVRap/KLS9aGMdEC1uZHLc6yVLcxiZt4/zWzkCb4kltLC9amGyKFrYyZdvqJMvZWV2RHjLxS22tPEfXyXI6nLfyHF8M0BWegZ4ZSAvN8jlaMmGGFS1sZSkNL7D2ktXitEBqjY2y1M7Kc7RkXTFDq41xIyuzeqc9A10zkCsiKxPdF+OP2qa09dXaWHmWzhVH1jAR5tpZWY5GJrnFlmaYEm910IBsK85/PQPDM5AWkOVF1+GcLpXhpWQprQisXrIi7lMIuTZWlqORSb5Gn3XuEw8WPXOFZ2ABM/CRt+2276rbFKKKMaUVmfTwls7pJcviPbPScYQbCjd2qyKWbpyRvBfPwPxkIJ3bFKhkonNFOyiC3Tu2lkO2mZWJtjil4Tm6jm3HdNozMK8ZYF5rjgvja0pLBgbQp5CTpTYr/Jh3ZA1qcUrD2yPrlAs9AwucAc35NATdjZGLtji178R3KeScgzkZDlg5dOno5KwbewYWIAN27qfuakmNjWhrk5PnZLbNCt2lkNPG1mHRwthC1x2+tE4z6vwyZIB5/eOGQFTE1Ed6V5asoYv16raFTOdNIBtw06F9RFOfrvcMLFoGmPttipm40iIuxUqfKv6szRh3RQYRWFoyMHIdKuIxxrZjOO0ZmIcM2PmtOV9XF/K5ZCN9LW57R047qRvUOi+a9qItTvt13jOw6BnQ/CYOaEB33oqb/JbusrQr6SatDTX0rihHhU3XKyTy3KGrVmrvvGdg0TPAfNf8zs39XHzYAcIV1+G3TSG37bzktJXbANuM3SEUN/UMzEUG0jlu5z8OWl50G8exLUKfYko7THkNZp0UnWLZOvYMLEsG0jkunvgsncaLzkLKW90Guu8emY7qBpIOnB5cPHTQj4NnYJkyYG+OvIay8584tV8u7YGxL+lonwU7aNagpdA6Cw1YnOrFV5b+6xlYngxobucwUSIHUn0l7fk7ViGnw1tnczoFkeqc9wwsegY0t1UDNh7JhK1uEN1UyE0D5vSSWQydOwY57409A3OYgdw8lwx3oQHhiqt+c7JW+qZCtp1Adx0I+/RQP019YefgGVi0DGi+47doi208TTXQpF/rq2shrzU0RM7JnAPWTrTpxknPwFJkQHPb4jQwdII6O9k04r6FbB0pDWIdlH1OVmrvcs/AImYgN8dzsrrYVC91Nut0fQt5XScJU3JC8hQnzZ31DCx0BtL5LT4NqiRP7Vrx0yhkBk6dFG+x6FaOupFnYEEywLzW3E6xQpBc/GA8diFbB6F14Kh0VjY4AO/AMzCHGbBzPJ334nHb0oPCGLuQm5yxjlu6qZ3rPQOLkgE7ry09Vf/HLOQ6p63O0lMNzjv3DGxiBuw8t3TqUp0utS3yQwq55EAqFy+MM9CWLzroCs/AgmUgndua58IKJ+Wb5NJn8ZBCznaYCEvOJmbOega2RAamVg/TKmQczjldkm+Js+hBbqkMlOZ6ST4oOWMVcq5orWOpfirB2AGd9gxsUgZyczud/6lrTfrUfgM/5O+RN3Q274KDnxzCG14QwnMPDuHg/eO/WRr/WvT794dwxa4QPnNtCA8+Ou8RDPPvmU8J4TdPDWHveNYfeCSED1wYwo8idlj8DAwt5MFXklml8MgDQvjDM0J4ko14jxCOenp1PHnvEP75yll5sznjvOKYELYdNBn7Z44K4fzrJvw8Uy86PIRTnl1deJb4PFFPnf9RAc7bWEvrNnNgU4v+7adMivjr3w3hHy4L4V9i4d54V+U6d6llh5ccvT7CUxN+vXa+uOc/M4SXxwvR6dvny68W3sxk3m+B6RvCHjGV2+KdF7g5Fu77d0wue5/6VghMkvsfXlEv7c/xzwjhoLi1sPDcQ0I4JG4x7vihlTq9iBnYEoW8z14h7BWX0cDDj0+KuJKEcPX3RVX4lceGcFo82D++5/z1OpZ4v/CiEB6P/ZxzYbXXxOLs06sxPvyluAePBXLac6oiuSf+D9DX/yCE//xGtR9f31sI3BV/Oi5xjzqwWjHcem8I195e2T8SxxBg95rjQ7j1nhCu3BXCL50YwtP3C+Geh0J43wX5vtUWfOq2ins8Phf4+FUh/PJJFU+/+JYCF7/Tj4vL2WeFwN56t8jf+UCM99GJ5b/Ffm6IsQn6xPJf34zPLU4I4XnxYsp5uuXuarl/+S1Vr8fFC9CbXhh9iBccYPfox+++qqKJhX0+mOcfPx/tjo3PP8gLzzvI+3/E2Ohz2WHPEQKMqZ1v4MHO/XHCP2WfELbHInvd80P4n6vLPh/21OoO/licICkwYXR33zdOPPoGtscJB7zztRXWL0XA8cLDQviTz4XwvfukCeHXXxLCS7dNeCguAhwnHRnCuz8TLyarhUMfjMtBGwoLeEac4Hs2bJD2ivqTY0EC37wthB3Xh/DmeDHi4kbx5Qr5t14ewoujDxb2f5LlYj4N3zcW4uT5hICC5tjr0hC+cGMIh8dzwYpJQNyW55kH8b3jjBCeGs+vgK3ST8aYOYcf/IKkc405o732x0TVMAVGD3x1+o3eb2OHl948MeFu9s544k88YiIbk3oino4LbwjhY1eGsCveQQEm2RtfUNH88uBGRUxx/9XFcckf76zf+F5lc0R8OPez8YKTAyYzy+HPxift18TVxI8bTv+JsVj2Wy2WL8Y8cLe6Kj4nAA6NhXKMeQCGjEJREXPHPWdHCJ/42uSihc25V8TnC3dCDYuFIiaW/4535svMOVKuvhb9/NevVKuUarSKR/ZPX65WTaw2VMSfjP380adD+Pt4IbjprvU+q/0McTxTs4Ex7shNnpaCKcmb+uul//hXQziMO2NcGgM8vf3t06o980fjpPz2HZV86C+vtP76khC0NLz4xhD+9HXVaoC74odixh9+bFLULN/f/dkQfvhwNTLL/A/+YrXM5m7J8jWF2+PEf1ecrG339fQDsFS/4jsVfelNIfxU9AdAv3O1KOHtk+2/jBeYu35UFf7+sejOOB6L6gJyb1zlACq6PrHwsJHti16DHRAveMfHCwkrkH1iru6MY593TVWoLLNZRsNbOCSukgQs1ckv8ZD7TYDSvC7JR3Fx1nfkUZzu0wmT+P07QvjHy0O4O04OAa+ffj/uuV62TZJh+ILrJ0VMTxTbl3dVfe4Zl7IszfeIWWfJCHwn3rEPins69sgc3IlVIOz1csvmv4sXirZFzHKYfT3A3e2hOMmBq26dvDdnj87eU8CWIQc/eGAiJQZgaCysQlTE9PfV6KPgafuKqsf2Yd3vxXNJwW81iNe8mQNTxkyb2Y3/RByKQvv8zupVBg9HmCy7x0l51slxWXtbfHj04DB/tKe1vWh5jYw9HXcQxgSYdO86s6LTX5bQLInvW73zSb8z3sXaAkt4XQxYwj/7aZOWPARifJal7OG13OYjGQF7aZbVbBde8ZxKylL+u/dW9NBY0nzZWHWxkC8lzJ33tc+rziXbhD84vdrSfPLqEC69qdRqqvKZz/HNKOSpZrBN5yzPeODzpVuqk35knNwUGA/CtCSmn7GuNvYhEXe+9J116akqd2YtudvElbN56dET6c+dEAJHDtivq5DZdwtedkxcrcTDwudvqJbpyMaOpWm/b/0QzerkHZ8K4S0nVm8AuABwTn/j1Orh4BJ/QKIUhC1ZyIqeJ87/d10Ib493Y0B3Lu7cABOCfZqWo8iaijun388sVZl0tjg/9+3qoQ19jw080T42XpzawElHTGJ91fZJCwpLy+7H4vaEfNl9O6+kBNOMRWPk8ouOldTfxgdcH4sPwfhohDcTnD/29DyV19sF9bNseEsUMvvSo+Ne+Cu74sMSVenqmTw0PlQRaJnHqyoBr3uuub3i2MueGZdwdcDy85Kb4vve1aXn3nFfzPIW4EHYXXHiPxoxE4sntjwAY/I9GotkbOAhluBvLln/VFjyXzulWjJzZz05+nnRzslTbPbvH9gR/Yz7bPy7PS650/wRxyxi0WljS8L5tPt1xQJmFaOtwBvj1oktARdjL2SbpQWlmaB8AMHej2+Lr4uvVDjByF9zXBUUE1UfN9g94q/GuzUPyJg8b/6JCtelgf0mD1yYTOxJXx/vDAfGCwBw2S1VEUN/8aYQuPMdsG8Iv/PK6nUOxc+k4z0qxY8/n74W636gj0AeiQ+4+Igkt2y95MbJ3pfCp5DvXX1O8Ky4PH3PGyqeJ8Ecd8QLEa/I2JeyRQFmEct95tnF6+P24KIbqldnvGsm38TGqyc+puF7AT3w4jmDXVFVHi/fb5w2yw8PPVrFyCuNX3lxPl7ei+pJ8JXxiS5PtilAniKf/ep8m5KUYuZOZwEfeFcq+PevVxcSbPl88o/PlGaCVSgTSXuKhz7EC/AkmCLMwbfixFesvPY5MF5YeAfOk2yA7Yb9tJNXU1xkeM/MV1XAtGNhDL7SEvDlHQc5vfzmeDGMOTw8nqcTDpXFBPOkftnvxkQbT9PyA3eZT1yVX46xfPzzOCF5mi2ggP7s/MnHHMhZFl99Wwh/cZGsJnekiSQWTbwI3Hz3RMKdn4dZvCvWchst++Szz6uWu9wxLTDWdXfEp+uxoAQqanRtvv+xWwbuuiWI7q1sBdCzF6b43xJXLwCrlA9dXr2244OV866OF7vVbQcf0/AFHDBmLIqTfi3NKoqv8eyqgleKpAM577otkKeLd4bAlmIrQDx1tZDqxYNLBxcHe8Rd4goPXnecde4T8VHPbIHXTRycaD6saFp28Rkif1jA6xbZsvylAOxd7sNvreLgrsvDIAqCPfBtcXmtvXcpUhLJ30czFl9d8QDJfmetdjw0Y3/ddj+NPXta66f6SjG2xMQT9vfF5TTwv9dU+/eKq37fGlc0+ijkvedXr+ysfoxYeI9Nweb85u0CD/HQ3xa3SrbY2f6wwuFOzRagbZ6s/0Ppj7xtt+2xj3iJ2XDEM7ciA9uDtJeOqNpw2cZ2A8S0bC3g6WaXd8Ust7XkVqZU0OJz2O6zc3or48zwUYP9sMHqRTddEGQn3MVetvb76ZPiXZfPQPm6CuAOzP5dsCte3FIYIxYuZiWguFlF5YAHYKWHYDn7ZZJtuUJeppM3jVhYpXBBYRXCd9jnvKlaJVBA7EV5eASw7O9yQaxa+e+0MrAl9sjTSt6y9vveC6q9vvajLHXZjlDE7Id5L8ufazrMTwb8jjzSueAvbti/2c8xR+p65t2wLeCJNHt8Hprxd8I8kGPZyl04u0mbuZc+oM2AF7LNxgDa/vXQgG7mqimvbW64c65ccmcKGfCldSExLvYMLFIGNqOQWZn56myRZon72jUDM5/jm1HIXZPi9p4Bz0BDBmZRyKW7b0ne4LKrPQNznYHSvC7JRwlmFoU8iqPeiWfAM1DOwKwLeapXpXKYrvEMbEoGZjbfxyjkmTm7KafCB/UMzCYDg+pojEKeTZg+imfAM1DMwCwLedAVpxiBKzwD852Bmcz7oYU8Eyfn+zy5d56B0TLQu56GFvJoEXhHngHPQP8MjFXITVeSVA+fyvpH4S09A/OTgdzcbprrTfrG6MYq5HSgXDDYlORpe+c9A4uegdJcL8kHxTutQpZTOO3gGfAMVBmYWj0MKeSSU6lcvDAhQVu+CtN/PQOLn4F0bmueCyvClG+SS5/FQwo57bDkGHZWZ+m0D+c9A8uSATvPLZ3GV6dLbYv8mIVcHMQorNOWNiZOegYWOgN2Xlt6qkGNXcjWcWgdBCGdlU01OO/cM7BJGbBzPJ334nHN0oNcHbuQ5UzqoHiLRauNY8/AMmSAea25nWLFJ7n4wXgahVxyUvIUDw7CO/AMzFEG0vktPnWxJE/tWvF9C7mNE9jYA4cs36aPVkG4kWdgjjKQm+M5WZ3LnWujbyFbJ6yTkuccsXaiZe/YM7AsGdDctjiNDZ2gzk42jXj1/w0o2uX0koFTGp6LQ4qR6dD/BQVfomWb9gNvj8iu8wEewKYEdbpSG5cvXgZsseS8t3rRFkPr4P9qgrbY/v9N/F9P4ku09Gk/GgMMiBe9IjQ/sjOi+L9mruM2MjSqm/g5vWQWQ+cOgqN/dNApaGyLoVOedpKpj5SX3OI2NtZ+M2ly1BUWKb6usWHfJye5duoHnNLwzM0UqzCls3ro3BHF6/qHt0CbOijqmwq5rtM6HQMyiYStLTJ75ApY9pqI6os7NQCvQzwYUJuK6/c7Rh99RiYv04bNis3GNYs47Xgl2vohGqyDdrlCtUVsabUTTsdFDghX3Ai/YxVy6hiTBZkwdNvDFrYmHVh9iba6qF4BycSDczKr70KP0Veaqy7jj207RjxNPs1TvDlfrEw0OHeoqFW8OZs6GblCD6R2lbTn75BCxpHSRJAu57Qt1Jzbtk9o+uBODC1dSkfVmg4akG3F+W+XDHTNnc5zlzE20zb1V7zFKa0iRm4LWXQOY5sexK2+oVOo06W2a3yfQmYge6JTXp3LIWyhdaAXLUwSBOobnQoYGrkObC0tHixQP+IdewaUAeaTBctDixdtMXMV3mLR1i6lGU8y6BTQWUh5q9tAtylkOmxTFLmBaSc5mIApTtGRXAFk6ACNpbYqZiu3tG2z0oHpQ7xjz0CaAc1LycVbnNK2YEVbDC2etpZO+4LXIR/qsNpnbdoUcrbhqpDOVXAqLmtvBxcNJsC0oNVe/amANQZyayOa8Syd45E5eAZsBjQfJbM8tHjRFtsCFS2MnaVtO+gcSC6cs6mV9S1kBkyLRwPlnMFWcosJWHdj9QeWvYqZviW3dsgBySpuIy+5Y8+AMqB5mOOlA+vADjotUstbWu3AgOVFV5qNv2qzUVOQ9C1k2x2DqpAsndqIrytebGzBqj/JpM9hZAL5I96xZyDNQK5YJMthZLnDFm+JVn91PpRs0jZZvm0hM0haHKlMfBuHVMw4BU3f9s6swhXGLqWRAchTyMlSG+e3dgZy89TKRINTWjJhW8DIUl52KeYMILOQ8uhyMtum8cuudcY1DANRPMKYNg1uCxh78SpYFaN4bKzM8tAC2Yh37BkoZSA3RyXLYSuDTo8uBYxPtr+Sj63kbe/IGrRtkeCgbOVsyaFcAast2NL0kfLqV3Lxjj0DbTOQzlHxOWxl0F0O+aM+xNfhVrZdCjk3GIOogERbTBv0dc7IHjt7qK36F5YcDFh5JWn+7dOmuVe3mKcM1M25kp+2TY5GJrloi+nX8pa2OtEWpzR8a+gzoXNtrEy0xSmd41MZQViZ5VMaHpB9xfmvZ6A5AxRbClYmOoetDFoH/YlObaSzOKXhAbWtuJrfoXfkmq5XnKCw5Iyl03bYoJdNSts+bFvsmqCNTVMfrl+ODGge1UWT2lheNHgIXTd+L13fSZ5rZ2U5GpnkFluaIEq81UEDsq04//UMDM+AClQ9WV50Hc7pUhl9S5bSuXElK+K+hVBqZ+U5WrKumADUxgaTk1m9056BrhmwBaa2Via6L6ZPtU1pjVcntzZr9JBCKLW18hxdJ8vpcNbKc/xaQE54BkbKgC02urR8jpZM2LbJyawe2oK1t/IinRZI0bCgKLVP5eKF6S5H52Qa2uoks7hJb22d9gzYDDQVTqq3vGhh+s3RVpbadPHF2q7RY0z+Uh+p3PJtaJy0dnI6J5POsWdgzAykxUffqczybehcH/LZtpesFR6rKEr95ORWZmkcbuLToFL7VO+8Z6BrBpqKKdXX8akOX3KyOnkr//lXLMeCuqJKdSmPDzlZk2+lpDS1c71nIJeBNvMpZ9NGlrORD3U62dTiPsVT12FdfyVdTp6T5cZta5dr6zLPQC4DbYsqZ5eTMUZJ3qTL+ZeVTaMQmvqs09fpFEAbG9k69gwMyUBdAarfOps6He2b9BqjEU+rKNr222TXpG8M0A08AyNnoKn4mvRyp62d7GvxtAulS/9dbGuDSpTT6jcZxtkFyMCoxWPi7dJvF1szRD05i0ned4y+7eojdq1nYHgG+hZj33aNHs+yWKY11rT6bUyeGyxdBqZVaNPqd+0EbFYRbNa4a4E74RmYcgamXrzW/3koqHnwwebEac9A3wzMtHitk/NaRPPql82d01s7A5tWtLm0L0PBLEMMuXPjstlnYK6Kc/bh+4ieAc+AZ8Az4BnwDHgGPAOeAc+AZ8Az4BnwDHgGPAOegTnIwP8DkOlN2sCv1eAAAAAASUVORK5CYII=;" vertex="1" parent="1">
          <mxGeometry x="371.07" y="160" width="146.67" height="80" as="geometry" />
        </mxCell>
        <mxCell id="VCE-eFX-D-IUiVNwlB2O-8" value="" style="image;aspect=fixed;html=1;points=[];align=center;fontSize=12;image=img/lib/azure2/ai_machine_learning/Language_Understanding.svg;" vertex="1" parent="1">
          <mxGeometry x="423.9" y="130" width="41" height="41" as="geometry" />
        </mxCell>
        <mxCell id="VCE-eFX-D-IUiVNwlB2O-9" value="&lt;div&gt;&lt;span style=&quot;caret-color: rgb(0, 0, 0); color: rgb(0, 0, 0); font-family: Helvetica; font-size: 12px; font-style: normal; font-variant-caps: normal; font-weight: 400; letter-spacing: normal; text-align: center; text-indent: 0px; text-transform: none; white-space: nowrap; word-spacing: 0px; -webkit-text-stroke-width: 0px; background-color: rgb(236, 236, 236); text-decoration: none; float: none; display: inline !important;&quot;&gt;Helps the orchestrator to understand&lt;/span&gt;&lt;/div&gt;&lt;span style=&quot;caret-color: rgb(0, 0, 0); color: rgb(0, 0, 0); font-family: Helvetica; font-size: 12px; font-style: normal; font-variant-caps: normal; font-weight: 400; letter-spacing: normal; text-align: center; text-indent: 0px; text-transform: none; white-space: nowrap; word-spacing: 0px; -webkit-text-stroke-width: 0px; background-color: rgb(236, 236, 236); text-decoration: none; float: none; display: inline !important;&quot;&gt;Natural Language Understanding (NLU)&lt;/span&gt;&lt;div style=&quot;caret-color: rgb(0, 0, 0); color: rgb(0, 0, 0); font-family: Helvetica; font-size: 12px; font-style: normal; font-variant-caps: normal; font-weight: 400; letter-spacing: normal; text-align: center; text-indent: 0px; text-transform: none; white-space: nowrap; word-spacing: 0px; -webkit-text-stroke-width: 0px; text-decoration: none;&quot;&gt;INTENTS &amp;amp; KEY TAGS&lt;/div&gt;" style="text;whiteSpace=wrap;html=1;" vertex="1" parent="1">
          <mxGeometry x="340" y="80" width="250" height="60" as="geometry" />
        </mxCell>
        <mxCell id="VCE-eFX-D-IUiVNwlB2O-10" value="" style="shape=image;verticalLabelPosition=bottom;labelBackgroundColor=default;verticalAlign=top;aspect=fixed;imageAspect=0;image=data:image/png,iVBORw0KGgoAAAANSUhEUgAAANQAAACMCAYAAAAEA4eCAAAAAXNSR0IArs4c6QAAAIRlWElmTU0AKgAAAAgABQESAAMAAAABAAEAAAEaAAUAAAABAAAASgEbAAUAAAABAAAAUgEoAAMAAAABAAIAAIdpAAQAAAABAAAAWgAAAAAAAACQAAAAAQAAAJAAAAABAAOgAQADAAAAAQABAACgAgAEAAAAAQAAANSgAwAEAAAAAQAAAIwAAAAAplnTpQAAAAlwSFlzAAAWJQAAFiUBSVIk8AAAHrxJREFUeAHtXQncXcPZn2yIXYQEIRJiSZQSWz+RoDQlal8qPpX6aFMtbRX9tdqiLapo1dJagrZaPhqpfRfEGkVJPrvYI5JKiOyyffOf+/5vnjvvzDlz7j13fWd+v/M+6zzzzHOf5z3LPXdGqdhiBGIEYgRiBGIEYgRiBGIEYgRiBGIEYgRiBGIEYgTqEIFOdRgz7yFbYQ55x6SZ7S1vZucbMRkb0adm/oxb3feGKsBGSN5G8KHVk64jza+uBVavZK7XuB0pseJclap5cdUysas1VrXsxoSsTwSqVQTVslsSpVokY7ljlNuvZIKRaNkIlFsg5fYLCmQ1kzaL7Sy6QROzlKpt3xoukp4IVDWZ9ZhZ7GfR9UynPbtaiRZiNy+d9rOKnFaPQEgx5KWTKZYhSZ3JoFZOs5kkT5LRjxAd6kbY/BGotDDS+qfJM0Uwz+RMs+WTu/gunmtioXquvpHXuBEITXKXnouHmfr4jEKanHqJMK+ETLNjy20aToby7Am5+tk6kW6eCIQktksnhOfSkZFJk0tdJ55HMibZsGWV0vYkbHu2PNLNGYG0xLblldIySrYtKUvFK03IpP62TNIhOJyXepyMi0dZhK0XAVeC2zxJh+CIktSzo5Yks3VL6EqT09df8rPgPl04LWUlk2gj0uSuPpHXOBFIS2JbLmnihJhVVlxGQvaV/FS8kiT09ZV8F57Ec8kwCcl30akTjQpNGQE7sSXtwskjxKSJE0qejYNmk/rkpUI7UVM7tCn4+km+CycvK8Sw7CN9dPGkPOLNGQFXMkse8XIhosK+Ni4jJnUk34uXk5C+PpJPnBAOACctocSp54KSBxyNfQtU/NsqEbATWdLEk6BLRh5iRJxQ8uwYSh1b1o4uJyFdfSSPeBI0snGTli9o51FkxAhUGIFDtu3Uvc0EioEFkQbRhTpt3Q1w8aS8BO9aQqUTLBKfpi0nDWjjpH22Ij9GoNwIdNYdXYUAHvJOymzaHjNNXqKPgSttrsKQPOCkiRNWOnbsHyPgigDzixA6Eidt94VORS1LQbkGkzziEgJ30ZJf0QRi5xgBRwSYXxJCzUWTTzPQsZuLZ+sYOusln9OIZnJACYmjD3DXAVlsMQJ5R0DmnrTNSz3K5SUgeJTLPpnwSgqKTtkDSj5w14Ezo9SzbUQ6RqCSCPAeapnHCAsHOUhcqvr4UseJhxZUUvJTRoiBgPsOFpPUdzoXmTECZUaAuYVc8xUVTLOYoA+cEDK7JcmKuqEFVezQhtBhF9+WgXYdmGxsMQLViIAsJDsfWUQYlzLJoz+QufiUO2FeSU3HOAhoHuARx3jACSGLLUYg7wjIHGOugYfGXCRd4Bb4xMuGIQVlDywHkzKJQwd00hEythwr4jECoRGQReTLQWlL5q7EpQ7wJJnRLSepk4xCxsMMIJwgX06WOhHGCOQZAV+ugc9GHcmjjDBJRp0SWO49lDTiG1Q6bOMoqnKKWY4b8RgBXwSYW3ggIXMP+sxX1/0RZC4++gU1DhykbCnRMbCl08TJJyRfQshiC4jA+1NeVlf86jtq3LXnB2h3eBWZYxJHYECjST7xgmSFDulgWElBpQ2S5Lg9gTRbDSVfOH+eGnv1uWrsVeeoRQvme317Zvxt6sbLz1SvvfiUV8cluOznx6lTDt9evfDUA0XxO69PUvf/4wr1wNirijwgLt0ShY5JML9cEBFhbuYenbRLvrSBfXLyAZOO3CdUC4Oz/vOhuuHSM8xQQ/Y7SvXu09857D03/VG9+NT9auH8OWrL7b5U1Jkze5Ypsh7rbaj6b719kQ9kwfy5avxt1xnepKcfVF/80j4lckkk6b4+aaL67NOP1aDBQ1X31daQ3ToCnpRzkOGyjtCOh49PvUR5WkHRCCGMJTXIqSNx9iEPsJpnR47XkHDiQ/9UfzzreLXJgC+oi2+ZVOJj91VXV3sfcrz6+KP31c57Hlgis4kk3Qt+dJiaOf0DdfrvblG77n2I3bXVaeQWi4b5yDkzBykHH7ivQT9JXtIva0Gxs3SSDto8qUsd8IhLfepGqCNw4llXB8chi26w0eZXtHNM0iwO8CTOWUseccpSYbkFlWpYK8hJ+PAQOy2jM3/uZ+qRO67Xl3tPmjnN+XSmuvvGywy+Vo/11W7DjzD4hLtuUP+Z9q7afd+j1PobbWp4vj+27ov6MnHq26+aS0f0ef7xexQuUdF2HLq/wr3Ye2/+n7kU3HqHIYYv/0x+5mH1+qSn1UB9qbj19rtJUTPhvnyT/MzFEhKAahQUnPY1ygh9ei3Jf1cn85jzvlec2yc60cecd5Kh1163d7Ggbr7yl+rDd15T6/bqk1pQtu64a36jJk98qDjGg+PGFPEuXbupV557TE24+++qT/+B6pJbXyrKiFx+5v+oGVPfVkeMPrOZCwrTYY4RcooSQpZrYeVdUHSekM6DJo84aeq0PNx0y+3UN065QL0xeaJ66oGx+mHBmuqwEwoPN1A8ebSDRp2mH2R8Rd0y5lw1f+5sff90qBqwzc7G9Pa7fVX17L2xKagP3npZvf3qC6rfVl8sDosHGSgmNJ4ti8LmQuwcIy1nAR6KiVDKysbzLijpCCcBiOaiC5IO8hdP2w4adap6cNw1pqDW27CvOvi403Od/fa7DVc47r7xUlNQQ/cbWfJQAoWLs+GnMz9SE+76e0lBPXHfTcaX/lvvoDbebGCuftXYWFLOMQ9zPTNxfpU8aaPTtGXT5ANSJiFxqRfxKkegS5cuatj+/21GeeyeG9WyZYVfNyxfvlw9cd/Nhj90REFeZVeqaR65xfyyoWtc6lBm0+SnwkoKymc8zZk0uc9u5OcUgT0OONZYmjVjqnrp2UcN/srzjyvQnTt3Ubvr79ZapKXlWpo8cxjyKijbMUkTJ4STwCWd2fF6dujSZcWV8rzPPvG6smDeZ0bWtdvKXp16CPoO2Eb1HzjYDI3LPjRe7m27695qnZ69Da+J/9j5xVwjxNQk7qLLmn6lBWU7JZ2AzJbbtNRvGhw39l27rmT8/fDdN7x+T3vvTSPbaNMtvTr1Eux14CgzNB6O4FWqJ+8fa2heDtbLryqMa+ecKy/lsLa+lKXiWQrKN5CPLweXOsAlLfWaAu/StavaoO8A4+t9N1/h9Bnv8c3Rr/6gbbz5oBKdTp0LYZ89c0YJP0+iU6e2MWa5x8B3XPingCeBf/ndaWr2rOlq5e6rqV32OjhPN+ppy86zkJzz6fj47eaXpaDada6QEexkheNUpfs+h55g7L783KPmLXC8V8f2/OP3at5oQw7acQ/92HonigzEl7hoSGJ80Yq2+PNFBub1h2NMfma8Wrp0afGg/TXWXlcNHra/Ie+7+U8GophWWXU1qjQzrFtu5V1QSRNJkjXdh7ffyJPUVtsPMX7jLfBjdltHfXf/LdQxQ3qoX5+4r3ksvfqaPdTon7c/g+GxNO+rTj1ysPr+wduokw7cOtcY8GXcJ+//hxr91X7qm8PWVxPu/FvJGHu2PZwgswUv9zi1pNxLkrF/MEwqqLwGystO8KRqodhZX7b9csx4dcwPzldr9eilli1doqa994bCQ4pVV19L7anvUS69/VW1Ub/290891ttAHf+TS1S3lVYx/d6f8pL+bqhX0e2u+o0GNLzZwObiQebjH/atM9QW2xbecJ85/X01b86nas0e69GcgTsM2df4DgLfTeGBRIu3vHLRa8cr0IG1ZZIG7jpQoOAD8ujShgOW4HqzAP8dvVZupoafZOAtg3X0TzJQMCHt80UL1UfvTzFF0XuTzfUj68L/t8WLP1efL1ygVltjrRIz8+bMViut0l1161Z4IAKhT5cdZ834UF9azlA9N9hErbFWD7INxHdPJ44YoKZ/MEV97Zgfqm+e9rsSebMSerMA3OAubTvwRZuNg8cDX/ACB3Qdmm0aZLLZtJGteP4rVauLy0Ks7kg1tI5ktRM2bfiVVl5FbWI9sEAfFIwsGtqxCyxJl316rK8LXB+uNnnieFNMkA3b/xiXSrPy6pZjhX+J2cIGZ2NrgQg8cMvVZhYbbzao3Q8dW2B6eUwhc66XU1B5OBpt1DkCuNzEDx3Rhn2tpc5OdY1sPS756jrhOHghArjcPPua8eZVo83a3pqIsak8AtUuqMynzMqnFC2ERqCJf0AYOkWXXlVzMl7yuUIeeTECZUagVgVV1f8KZc49dutYEahJDtaqoDrWRxdn22EjEAuqw370ceLViEAsqGpENdrssBGIBdVhP/o48WpEIBZUNaIabXbYCMSC6rAffZx4NSJQ7S92q+Fz3W1Oefl59a9Hbjdvhw8dcbTqvfFmdfcpOtAYEYgFVcbncN0Fpyj8UhcN60Z8/9y/lmGl9l2Sdv2ovTetOWK85Mv4uc748F1dTBOKvfCCadIeUUXFBkDg67nf219d8rNjG8Cb1nQhFlTGz/Wxu2/QPZbrlVUHqc56ObGFC+aqp8cX3trOaCqqt2AE4iVfxg/10bZ1GUYcfbL5+cO/n7jXrNUwTN9L+RoWbXnthSfVTL2Q5Jrr9DTri1O3r94jatCOw0jqn6rPVs9NuEuvO/5vNV+v69d3wLb6p+lfVn36bVXUATJj6jsKK79ifQosvTxJ/1gQG7Thp+7gYW3yVVdf0/QJ3fUDyi89O0Hbesjs/rH6muuobfQiMzvu8bXir4mNwfjHG4Gk95tsGWkJgcsDZzzQgDjkT95J86fwXfRP4F/XOk3T8DDitK8PNms9XDt+mnpWJ/6l+vIJq62OeWhqyboQmNTSJUvUeScfqLeUuds7x8F6i5kzLrvDyF/VRff7H480ySw7YLmvUfrn6fsd9d0i+7F7/lfrHqV2GLKfWSvikdv/UpQB2ajf1ursMQ+Zn+NjVdgzRu1eIieBtSSufXiaIcecd7JZE50ywlGnXqQO+MYpJBse6p/Ab6Gd5M/eCflTeAn503dC/KxdHpgraDTCAtWeNvx4hmJ4AuCEu/5mtLbbdR+FZbh2/fLB6kq9XNjnixaox+6+Ua/L8IMSK7f99SJTTFi05bjTLzY/RccZ7tE7rzd6hx7/U312+arB8cDgHH1/g0VesDcTdtFYRe9m+LAulIdv+7PZ9gYrGW02cIeSMVism275RYUnjh9Pe8/sOTX17VfUrdf9Vo/7exWy68cbk58xxYR/Dsf9+A8Ke0d9pB+43GuWGMP/yNhCIhALKiRKWgdr26Fo0Ibs+3UDsZvGjnptOyzV9aguNrug/q0v9dAO//bP1V4HjTL4dnrPXDzUwIZqKJiBgwtnjnFjzjPFhDPLWVc9qJcZK6x4tM1Oe6gpLz1rNkm77S8XqlPOxz1cadt5z4PUqRfeXOyzRC/ycv/YK82jfRRUyK4fb+lLTDQUH8+E/TT+pX0OLR0sUokRwGVYbAERwP0JtoDB0l+77HVQsccQvQIr2lsvP6c+eOuVIh8I9slF46KTwDt16qQGfGFnoGquWBcd9y1oww//drEwDEP/4Vns/Tfbb5C2Ts8NSooJfVDkaJ/8p3ApZ4iUP1heGu2d11402+1gRaTYskcgFlRgzPgwYvDQESW7qg/efT+zDh/MUIcmN9BLg6HhySC3jcGlHW780TbRTwrZuA76jZf/Qn17+KYlR+GyS5mHGtQnxLJiPJuRxwLGpSjOrCENa/LhYcayZUvNhtrfO2Ardcf1F6sF8+aEdI86bRGo1SVfU/+7w2L6E9sejT/z8G1q9L79SxJo4YJ5hsZOFiNP+rU5C4Gxu97s7IUn71N4EnjCPhubp3m43MMSzD17b6J2bjvTYRnmhfMLidtVLyHWve3pHAchzZ0IyfdBPM7P2rBs2a+ufUShoLEa0rR3X1fXXfBDhcvMn156RyusilSTHMwe+WyfVE0mkc2l7NoopkVtRYMVYrltpm0J90Uv6z1sB+041Ige+ue1BuJJGvbTfVw/5kbDeuffOuPy4kKW3VZa2VwWYkHKUT+6UK86e6zRq/Uf3GvhnuvrJ56t4PtNfzrL7BmFfXcvuvn5WrtTrfGqmpPVLqhqBaWmdnkpt9OeB6rTLxrbbuwlSxarE/buo++JZpmHEygofPfzyvOP6bNVZ/XHu95Uc2bP1LtxzFS9+vQvFpI01KvPZmaFVyzuX62CCt31A99f4QELtiz97Q8PUdhsG18BYNeR2JIjEO+hkuOjPvn4I/OFKdSGDD/SJBUSSx4r6/uY//rK4cYSnvjhEg7rkuPMs3z5MvXjo3dR2J0dm5rd9fc/6CdwV6kp+iGGbENHjDTkBH2/xb2aKEcy4zuv9xwPJagTAnlv5dr1Y/ytfzZPK+XDiDmffGzMrq5XxY3FFBJhvdZ8mFqJFk6ZHeaLCTwqx436Sit3VzvtcUBJICSB+yU8qp6v31R49tE7zeNm7PB+w2U/U9gMAIfd8KXu6b+/xSy7PPzw0eqBsVerd9+YpC489XDzatOGfbdQC/S91Zv6sTnsjjzpHOfSzbZdH81dP5YsXqSw6wc2glu0cL664p63dMHeqZ5+8Ba13gZ91eZ6+x28cYGlmtFabJlmX3hc/MyXh/U4Q8FJHq5JNBQPl21ou+gvcZP2TsL3Setv1M/oYt9aPBK/7x9XGnqvg45TZ171gPrJJber7559jXlYAcFzOolRRGg4A5x3/ZNqxMiT9ThrmALEvRse12PjADw6l4/rfbtuwBZleDiBx/RsSbt+DD9itC6wrcz3Y9jVEON204thHqi/YD7mB7+hiWaBzK/MBVHpBFdEu70lWyZp4K4DBQo+IA+8agRcQuB49ajhd99YsnixeSCxqt4JQyan9r9doy6+sMWTsqvOOVH16T9QXTxucrt34U4/amd95vmX2uewb6nv/KJQeNLgzOlT1Sz9IAPv0+GsYT8ah65rNw7awONuFBQuR+3m2/UDetitA+Pi7Q7cQ7k2LbDtNRpt7b6B7w3wapENwcOBoiOUhUhci02zi9OmjVI5l3xt9oOBc+Dg3nVWRCJ37bZ2kBdSd67+vgnt05nT1Wf6XmTtddcv2gCNezM0nBVcbd1eGykcSc21Gwf18cTO13y7fkA/abcOn70m4lc9F5MKCoPLs1JI3JL6VH0yIQ7WSucLu+ylOl3eWc3VT/dOPXIH/XbELgpf9OLR+MTxt5p7Ipx59ogL9dfiI0nKvSSZzzdvn7SCkXIbB+06eKknYbvLPd23s77kK2yT7nO7yfmP33uT/i7nbIUXVWXDC6i4JztaP2TYcFO8GB1bnhHQl3yba3u8zMOlnu9yT172oUhcB12TRSRxyg2URVIiaCNsOWlZSFBF8ZAnC0ni5r6pTZf3UC1dUAgM2vQP3tbv9b1nXgPq2auP2U0Ql12xVScCbQVlFxKLikUkIQsJPDTSLBzCgrQgJ14Cky75ShQ9BAZikdkqdErybcekrGXxXn366S90+7Xs/Bp8YnbOufJSTsHWl7JUHGeQPJrthKSJE2I84JLOw4doI0aAEbDzi7lGCD2Ju2jaygTzKig5qO2olAFPk9v6kY4RKDcCabmWJs88biUFZTtj09IZyiQkLvUiHiOQRwSQW8wvG7rsU4cymyY/FVZSUGnG4RQP6BKns4RpdqI8RiBrBJhbrpwjL6vNIP28C0pORDogJ0GculIv4jECeUTAzjHS0jbzj1DKysbzLig4kuQgZYRlOx47xgikRIA5RuhST5K59FN51SgoDgpn0w7qRhgjkGcE0vIu90Ki877vkHxyqQ+cNHEUqMRJA+LgGxNJOHUJYQ847Uqo2SU+gEaDDpvEyQNM41NOyL6gySOkDJA8QikLwe0P26aTbGTRhR1b36Y5luT7cOq67FIm+9p6lEkIXB744hW0/FJW4vLLWx8u+9M27YJGI79Ahccp8++hMFBSotAh6NApqU8eICZBPeC+xv6A9oE+Ui5t+PjUoZw0oeQTJ7R1yJeQMaBupdBlz8WT46TJs+hKWz5c2gMu9aRM8iUu+5APaB9MfEDXQX3qkbZ9AB/NJS9IVvyl7gpOApb2pgSMMVlcZnxy8gGTDkwcDWNIPfKlTJ6lyKdvhOQDyiblWfnsa0PaIR+0D6duCEQc7BbKs/tloe0xkmhbJsfJKpP6xAFtXBYJcElT38ennBD+0j5w2Xx86iTK0wqKRsqBGBgJBph2IBCyMTHRj4VEe5DxQB/q2jhoNKlb4Kz4K/uu4BYwKSNuQ9mHMvAk7tPBfHzNltm0r18oP8meLUuj5Zi2rkvm0pE84oCug4UkYWghSdvSt9zwSgoKzjFx6Kh0DDLqANqHXUR2X9C0waICzTF9kHYo99FpfMilDeKEtpz2QvmumNFGkow6EmbVD+lr27RpaYO4T8fFt3mkXRA8HCwiibOYbMg+EsJP0GiST7wgWaFDOhhWUlAcBM7IJLP5rglg8igSTgQQPDbaA8TBMUhLOfqQBs5m82yaeoChMqnnw9PsyXGTcMZN6rh4Ug48RMfuQ9rV18WjvoRJei5ZEo8yQN+BfIGMhWTrUW7z4TN4rubju3SdvHIKCoPKZJKGpUPQIU0cNCbKYgLORpvQoRw8eXaCLnjUtSHkaOQXqBV/ffykPuwt+/pwnx2pT3uEjBFpCX0yH1/2TcJD+ofocIwk3Swy6kpo47JQiEtIHP0kDl/Bs+2RhtxuSTJb19AhBQWjvoSQMonDuHSGuISYLIoFEI1jSAicdoHbMvRDI79AtafJd+mmyWzbSfouXRdP2gDOuNj8NFmI3GWzHJ7LRxdP2s4ql/rASRO3IQvGB219Sfv8hI6vJclMn5CC8hmXfAwkE0cODD5pWUQsJkL2p77vzCT16AN5Ppp8QluffECXzMWrtI/sT5xxIi1hkkzq5YknjZkkgw9pcpeO7EMckAf7gGYR+XDKCaGHRlukC9wwf6nrheUWFJxxJRmdlDLy6ARpWVzQl4UFmmMA5wEbwNFsWOAW/lImeTaepuOSu3i2XdCheq6+4DFGPnm1+CHj5qXjmyftuyB4vkMWjsRtfRk7yiSPOGSZW2hBwbgvSSgjhBNJzrCQoAccdu1iAk8emizSxAHRXH65eAXt0r9pej65i+/ilY5WPpUUzxCrlfbHGKE2QvV8NmV/4oA2Tp6EdiHZtNSlPemH5IEvW5KsqBdaUMUOAsEAriSSfJ8TspBgkjTsyQMy0jZOGlA2l09SbuMh+j4dHx9jJMlsH0j74kW5hFl0Zb8seNYxsurDF1cfyQNO2oWTJ2HWQrJjwvFsfipdSUFJ43AACSQh5Ewqn4O+QmI/QBcubQNHo16ByvY3tG+SXpIsmzfttX3xa69ZGaeScSrpC6/t/pIGTtqFk5cGGR3qyXHBq7hlKSgMaCeN5BGXkA6iH/i+xj7Q4wFdGycPkA06oS1JN0lm2w/RDdGx7SbFyNb10XnY8Nl28UPGC9GhbVuXtIQ2DtrH88kwnuzjG1/qUccLsxSUzwicspNH8ug0dIjTFvXY36bBpwx9fDjtSTl5WWEWG1l0s/qRpG/HMUm3WrI8fXDZkjwbJw1o42k040E90oAunpSn4lkLCgMmJZEtJ+1ylDI6SZoQ4xCnjj22TVPPhqF6sl+t+sgxbRzzb7RWiU+hfW09SRMHlDjiRJ7kS5w6gGyUk7ZhmrxEP8+kkbaIE2JQ4KQllDj1XFDygKOxb4Gqzt9Kxwjpn+lDq840E63W2j97PEkTT4IuGXmYKHFCybMDIXVsWTs65MNu10kzfP0k34WTlxXCB/aR/rh4Up4nXsux8vQ7q61MCZTVeKC+ywfJI14uhBvsa+PSRakj+V68kiTx9ZV8F57Ec8ngvOS7aO8EqyCwfanCEBWbzJwIFY9YHQP2PCTtwskjhFfECSXPxkGzSX3yUmGlyeHrL/lZcJ8uJiJlvomF6Pj6lsOv9XjwsawPupzJ1bBPyJxsHUkTJ7TjFMKX05X6kp+KV5oQSf1tmaRDcDgv9TgZF4+yesO8fSv7g613IHIc3xUDmyfpEBzuST3b3SSZrVtC55EASTZsWaW0dN62JWWNiLv8LfuDa8QJ5uxTUmxsWaW0dN22JWWpuOtDTu3kUEizY8ttGiZDefbwrn62TqSbJwIhCe3SCeG5dGRk0uRS14nnmYxptnxyF9/Fc00gVM/VN/IaNwKhie3Sc/EwUx+fUUiTUy8RViMh02wmyZNknEiIDnUjbP4IhCR6kk6SDNFJk2eKYLWSM8RuXjqZJhyVWyICIUWQl06mgIUkdSaDQjmL7Sy6YohEtBo2EweMwkwRCEn4TAa1chabWXSD/ahF0pU7Rrn9gicfFZs6AuUWRLn9goJVy6St1ljVshsUwKiUewSqlfDVslsSgHolY73GLZl8JFo+AjUpIhnFRkjsRvBBxiTizR2BmheRDFejJnOj+iVjF/H6R6CuxeOafislbivNxfVZtTqv4Yqj1QMe5xcjECMQIxAjECMQIxAjECMQIxAjECMQIxAjECMQIxAjECMQIxAjECMQIxAjECMQIxAjECMQIxAjECMQIxAjECMQIxAjECMQIxAjECMQIxAjECOQGIH/B1yWUjYMQ1/AAAAAAElFTkSuQmCC;" vertex="1" parent="1">
          <mxGeometry x="619" y="160" width="121.14" height="80" as="geometry" />
        </mxCell>
        <mxCell id="VCE-eFX-D-IUiVNwlB2O-11" value="" style="shape=image;verticalLabelPosition=bottom;labelBackgroundColor=default;verticalAlign=top;aspect=fixed;imageAspect=0;image=data:image/png,iVBORw0KGgoAAAANSUhEUgAAANQAAACMCAYAAAAEA4eCAAAAAXNSR0IArs4c6QAAAIRlWElmTU0AKgAAAAgABQESAAMAAAABAAEAAAEaAAUAAAABAAAASgEbAAUAAAABAAAAUgEoAAMAAAABAAIAAIdpAAQAAAABAAAAWgAAAAAAAACQAAAAAQAAAJAAAAABAAOgAQADAAAAAQABAACgAgAEAAAAAQAAANSgAwAEAAAAAQAAAIwAAAAAplnTpQAAAAlwSFlzAAAWJQAAFiUBSVIk8AAAHrxJREFUeAHtXQncXcPZn2yIXYQEIRJiSZQSWz+RoDQlal8qPpX6aFMtbRX9tdqiLapo1dJagrZaPhqpfRfEGkVJPrvYI5JKiOyyffOf+/5vnjvvzDlz7j13fWd+v/M+6zzzzHOf5z3LPXdGqdhiBGIEYgRiBGIEYgRiBGIEYgRiBGIEYgRiBGIEYgTqEIFOdRgz7yFbYQ55x6SZ7S1vZucbMRkb0adm/oxb3feGKsBGSN5G8KHVk64jza+uBVavZK7XuB0pseJclap5cdUysas1VrXsxoSsTwSqVQTVslsSpVokY7ljlNuvZIKRaNkIlFsg5fYLCmQ1kzaL7Sy6QROzlKpt3xoukp4IVDWZ9ZhZ7GfR9UynPbtaiRZiNy+d9rOKnFaPQEgx5KWTKZYhSZ3JoFZOs5kkT5LRjxAd6kbY/BGotDDS+qfJM0Uwz+RMs+WTu/gunmtioXquvpHXuBEITXKXnouHmfr4jEKanHqJMK+ETLNjy20aToby7Am5+tk6kW6eCIQktksnhOfSkZFJk0tdJ55HMibZsGWV0vYkbHu2PNLNGYG0xLblldIySrYtKUvFK03IpP62TNIhOJyXepyMi0dZhK0XAVeC2zxJh+CIktSzo5Yks3VL6EqT09df8rPgPl04LWUlk2gj0uSuPpHXOBFIS2JbLmnihJhVVlxGQvaV/FS8kiT09ZV8F57Ec8kwCcl30akTjQpNGQE7sSXtwskjxKSJE0qejYNmk/rkpUI7UVM7tCn4+km+CycvK8Sw7CN9dPGkPOLNGQFXMkse8XIhosK+Ni4jJnUk34uXk5C+PpJPnBAOACctocSp54KSBxyNfQtU/NsqEbATWdLEk6BLRh5iRJxQ8uwYSh1b1o4uJyFdfSSPeBI0snGTli9o51FkxAhUGIFDtu3Uvc0EioEFkQbRhTpt3Q1w8aS8BO9aQqUTLBKfpi0nDWjjpH22Ij9GoNwIdNYdXYUAHvJOymzaHjNNXqKPgSttrsKQPOCkiRNWOnbsHyPgigDzixA6Eidt94VORS1LQbkGkzziEgJ30ZJf0QRi5xgBRwSYXxJCzUWTTzPQsZuLZ+sYOusln9OIZnJACYmjD3DXAVlsMQJ5R0DmnrTNSz3K5SUgeJTLPpnwSgqKTtkDSj5w14Ezo9SzbUQ6RqCSCPAeapnHCAsHOUhcqvr4UseJhxZUUvJTRoiBgPsOFpPUdzoXmTECZUaAuYVc8xUVTLOYoA+cEDK7JcmKuqEFVezQhtBhF9+WgXYdmGxsMQLViIAsJDsfWUQYlzLJoz+QufiUO2FeSU3HOAhoHuARx3jACSGLLUYg7wjIHGOugYfGXCRd4Bb4xMuGIQVlDywHkzKJQwd00hEythwr4jECoRGQReTLQWlL5q7EpQ7wJJnRLSepk4xCxsMMIJwgX06WOhHGCOQZAV+ugc9GHcmjjDBJRp0SWO49lDTiG1Q6bOMoqnKKWY4b8RgBXwSYW3ggIXMP+sxX1/0RZC4++gU1DhykbCnRMbCl08TJJyRfQshiC4jA+1NeVlf86jtq3LXnB2h3eBWZYxJHYECjST7xgmSFDulgWElBpQ2S5Lg9gTRbDSVfOH+eGnv1uWrsVeeoRQvme317Zvxt6sbLz1SvvfiUV8cluOznx6lTDt9evfDUA0XxO69PUvf/4wr1wNirijwgLt0ShY5JML9cEBFhbuYenbRLvrSBfXLyAZOO3CdUC4Oz/vOhuuHSM8xQQ/Y7SvXu09857D03/VG9+NT9auH8OWrL7b5U1Jkze5Ypsh7rbaj6b719kQ9kwfy5avxt1xnepKcfVF/80j4lckkk6b4+aaL67NOP1aDBQ1X31daQ3ToCnpRzkOGyjtCOh49PvUR5WkHRCCGMJTXIqSNx9iEPsJpnR47XkHDiQ/9UfzzreLXJgC+oi2+ZVOJj91VXV3sfcrz6+KP31c57Hlgis4kk3Qt+dJiaOf0DdfrvblG77n2I3bXVaeQWi4b5yDkzBykHH7ivQT9JXtIva0Gxs3SSDto8qUsd8IhLfepGqCNw4llXB8chi26w0eZXtHNM0iwO8CTOWUseccpSYbkFlWpYK8hJ+PAQOy2jM3/uZ+qRO67Xl3tPmjnN+XSmuvvGywy+Vo/11W7DjzD4hLtuUP+Z9q7afd+j1PobbWp4vj+27ov6MnHq26+aS0f0ef7xexQuUdF2HLq/wr3Ye2/+n7kU3HqHIYYv/0x+5mH1+qSn1UB9qbj19rtJUTPhvnyT/MzFEhKAahQUnPY1ygh9ei3Jf1cn85jzvlec2yc60cecd5Kh1163d7Ggbr7yl+rDd15T6/bqk1pQtu64a36jJk98qDjGg+PGFPEuXbupV557TE24+++qT/+B6pJbXyrKiFx+5v+oGVPfVkeMPrOZCwrTYY4RcooSQpZrYeVdUHSekM6DJo84aeq0PNx0y+3UN065QL0xeaJ66oGx+mHBmuqwEwoPN1A8ebSDRp2mH2R8Rd0y5lw1f+5sff90qBqwzc7G9Pa7fVX17L2xKagP3npZvf3qC6rfVl8sDosHGSgmNJ4ti8LmQuwcIy1nAR6KiVDKysbzLijpCCcBiOaiC5IO8hdP2w4adap6cNw1pqDW27CvOvi403Od/fa7DVc47r7xUlNQQ/cbWfJQAoWLs+GnMz9SE+76e0lBPXHfTcaX/lvvoDbebGCuftXYWFLOMQ9zPTNxfpU8aaPTtGXT5ANSJiFxqRfxKkegS5cuatj+/21GeeyeG9WyZYVfNyxfvlw9cd/Nhj90REFeZVeqaR65xfyyoWtc6lBm0+SnwkoKymc8zZk0uc9u5OcUgT0OONZYmjVjqnrp2UcN/srzjyvQnTt3Ubvr79ZapKXlWpo8cxjyKijbMUkTJ4STwCWd2fF6dujSZcWV8rzPPvG6smDeZ0bWtdvKXp16CPoO2Eb1HzjYDI3LPjRe7m27695qnZ69Da+J/9j5xVwjxNQk7qLLmn6lBWU7JZ2AzJbbtNRvGhw39l27rmT8/fDdN7x+T3vvTSPbaNMtvTr1Eux14CgzNB6O4FWqJ+8fa2heDtbLryqMa+ecKy/lsLa+lKXiWQrKN5CPLweXOsAlLfWaAu/StavaoO8A4+t9N1/h9Bnv8c3Rr/6gbbz5oBKdTp0LYZ89c0YJP0+iU6e2MWa5x8B3XPingCeBf/ndaWr2rOlq5e6rqV32OjhPN+ppy86zkJzz6fj47eaXpaDada6QEexkheNUpfs+h55g7L783KPmLXC8V8f2/OP3at5oQw7acQ/92HonigzEl7hoSGJ80Yq2+PNFBub1h2NMfma8Wrp0afGg/TXWXlcNHra/Ie+7+U8GophWWXU1qjQzrFtu5V1QSRNJkjXdh7ffyJPUVtsPMX7jLfBjdltHfXf/LdQxQ3qoX5+4r3ksvfqaPdTon7c/g+GxNO+rTj1ysPr+wduokw7cOtcY8GXcJ+//hxr91X7qm8PWVxPu/FvJGHu2PZwgswUv9zi1pNxLkrF/MEwqqLwGystO8KRqodhZX7b9csx4dcwPzldr9eilli1doqa994bCQ4pVV19L7anvUS69/VW1Ub/290891ttAHf+TS1S3lVYx/d6f8pL+bqhX0e2u+o0GNLzZwObiQebjH/atM9QW2xbecJ85/X01b86nas0e69GcgTsM2df4DgLfTeGBRIu3vHLRa8cr0IG1ZZIG7jpQoOAD8ujShgOW4HqzAP8dvVZupoafZOAtg3X0TzJQMCHt80UL1UfvTzFF0XuTzfUj68L/t8WLP1efL1ygVltjrRIz8+bMViut0l1161Z4IAKhT5cdZ834UF9azlA9N9hErbFWD7INxHdPJ44YoKZ/MEV97Zgfqm+e9rsSebMSerMA3OAubTvwRZuNg8cDX/ACB3Qdmm0aZLLZtJGteP4rVauLy0Ks7kg1tI5ktRM2bfiVVl5FbWI9sEAfFIwsGtqxCyxJl316rK8LXB+uNnnieFNMkA3b/xiXSrPy6pZjhX+J2cIGZ2NrgQg8cMvVZhYbbzao3Q8dW2B6eUwhc66XU1B5OBpt1DkCuNzEDx3Rhn2tpc5OdY1sPS756jrhOHghArjcPPua8eZVo83a3pqIsak8AtUuqMynzMqnFC2ERqCJf0AYOkWXXlVzMl7yuUIeeTECZUagVgVV1f8KZc49dutYEahJDtaqoDrWRxdn22EjEAuqw370ceLViEAsqGpENdrssBGIBdVhP/o48WpEIBZUNaIabXbYCMSC6rAffZx4NSJQ7S92q+Fz3W1Oefl59a9Hbjdvhw8dcbTqvfFmdfcpOtAYEYgFVcbncN0Fpyj8UhcN60Z8/9y/lmGl9l2Sdv2ovTetOWK85Mv4uc748F1dTBOKvfCCadIeUUXFBkDg67nf219d8rNjG8Cb1nQhFlTGz/Wxu2/QPZbrlVUHqc56ObGFC+aqp8cX3trOaCqqt2AE4iVfxg/10bZ1GUYcfbL5+cO/n7jXrNUwTN9L+RoWbXnthSfVTL2Q5Jrr9DTri1O3r94jatCOw0jqn6rPVs9NuEuvO/5vNV+v69d3wLb6p+lfVn36bVXUATJj6jsKK79ifQosvTxJ/1gQG7Thp+7gYW3yVVdf0/QJ3fUDyi89O0Hbesjs/rH6muuobfQiMzvu8bXir4mNwfjHG4Gk95tsGWkJgcsDZzzQgDjkT95J86fwXfRP4F/XOk3T8DDitK8PNms9XDt+mnpWJ/6l+vIJq62OeWhqyboQmNTSJUvUeScfqLeUuds7x8F6i5kzLrvDyF/VRff7H480ySw7YLmvUfrn6fsd9d0i+7F7/lfrHqV2GLKfWSvikdv/UpQB2ajf1ursMQ+Zn+NjVdgzRu1eIieBtSSufXiaIcecd7JZE50ywlGnXqQO+MYpJBse6p/Ab6Gd5M/eCflTeAn503dC/KxdHpgraDTCAtWeNvx4hmJ4AuCEu/5mtLbbdR+FZbh2/fLB6kq9XNjnixaox+6+Ua/L8IMSK7f99SJTTFi05bjTLzY/RccZ7tE7rzd6hx7/U312+arB8cDgHH1/g0VesDcTdtFYRe9m+LAulIdv+7PZ9gYrGW02cIeSMVism275RYUnjh9Pe8/sOTX17VfUrdf9Vo/7exWy68cbk58xxYR/Dsf9+A8Ke0d9pB+43GuWGMP/yNhCIhALKiRKWgdr26Fo0Ibs+3UDsZvGjnptOyzV9aguNrug/q0v9dAO//bP1V4HjTL4dnrPXDzUwIZqKJiBgwtnjnFjzjPFhDPLWVc9qJcZK6x4tM1Oe6gpLz1rNkm77S8XqlPOxz1cadt5z4PUqRfeXOyzRC/ycv/YK82jfRRUyK4fb+lLTDQUH8+E/TT+pX0OLR0sUokRwGVYbAERwP0JtoDB0l+77HVQsccQvQIr2lsvP6c+eOuVIh8I9slF46KTwDt16qQGfGFnoGquWBcd9y1oww//drEwDEP/4Vns/Tfbb5C2Ts8NSooJfVDkaJ/8p3ApZ4iUP1heGu2d11402+1gRaTYskcgFlRgzPgwYvDQESW7qg/efT+zDh/MUIcmN9BLg6HhySC3jcGlHW780TbRTwrZuA76jZf/Qn17+KYlR+GyS5mHGtQnxLJiPJuRxwLGpSjOrCENa/LhYcayZUvNhtrfO2Ardcf1F6sF8+aEdI86bRGo1SVfU/+7w2L6E9sejT/z8G1q9L79SxJo4YJ5hsZOFiNP+rU5C4Gxu97s7IUn71N4EnjCPhubp3m43MMSzD17b6J2bjvTYRnmhfMLidtVLyHWve3pHAchzZ0IyfdBPM7P2rBs2a+ufUShoLEa0rR3X1fXXfBDhcvMn156RyusilSTHMwe+WyfVE0mkc2l7NoopkVtRYMVYrltpm0J90Uv6z1sB+041Ige+ue1BuJJGvbTfVw/5kbDeuffOuPy4kKW3VZa2VwWYkHKUT+6UK86e6zRq/Uf3GvhnuvrJ56t4PtNfzrL7BmFfXcvuvn5WrtTrfGqmpPVLqhqBaWmdnkpt9OeB6rTLxrbbuwlSxarE/buo++JZpmHEygofPfzyvOP6bNVZ/XHu95Uc2bP1LtxzFS9+vQvFpI01KvPZmaFVyzuX62CCt31A99f4QELtiz97Q8PUdhsG18BYNeR2JIjEO+hkuOjPvn4I/OFKdSGDD/SJBUSSx4r6/uY//rK4cYSnvjhEg7rkuPMs3z5MvXjo3dR2J0dm5rd9fc/6CdwV6kp+iGGbENHjDTkBH2/xb2aKEcy4zuv9xwPJagTAnlv5dr1Y/ytfzZPK+XDiDmffGzMrq5XxY3FFBJhvdZ8mFqJFk6ZHeaLCTwqx436Sit3VzvtcUBJICSB+yU8qp6v31R49tE7zeNm7PB+w2U/U9gMAIfd8KXu6b+/xSy7PPzw0eqBsVerd9+YpC489XDzatOGfbdQC/S91Zv6sTnsjjzpHOfSzbZdH81dP5YsXqSw6wc2glu0cL664p63dMHeqZ5+8Ba13gZ91eZ6+x28cYGlmtFabJlmX3hc/MyXh/U4Q8FJHq5JNBQPl21ou+gvcZP2TsL3Setv1M/oYt9aPBK/7x9XGnqvg45TZ171gPrJJber7559jXlYAcFzOolRRGg4A5x3/ZNqxMiT9ThrmALEvRse12PjADw6l4/rfbtuwBZleDiBx/RsSbt+DD9itC6wrcz3Y9jVEON204thHqi/YD7mB7+hiWaBzK/MBVHpBFdEu70lWyZp4K4DBQo+IA+8agRcQuB49ajhd99YsnixeSCxqt4JQyan9r9doy6+sMWTsqvOOVH16T9QXTxucrt34U4/amd95vmX2uewb6nv/KJQeNLgzOlT1Sz9IAPv0+GsYT8ah65rNw7awONuFBQuR+3m2/UDetitA+Pi7Q7cQ7k2LbDtNRpt7b6B7w3wapENwcOBoiOUhUhci02zi9OmjVI5l3xt9oOBc+Dg3nVWRCJ37bZ2kBdSd67+vgnt05nT1Wf6XmTtddcv2gCNezM0nBVcbd1eGykcSc21Gwf18cTO13y7fkA/abcOn70m4lc9F5MKCoPLs1JI3JL6VH0yIQ7WSucLu+ylOl3eWc3VT/dOPXIH/XbELgpf9OLR+MTxt5p7Ipx59ogL9dfiI0nKvSSZzzdvn7SCkXIbB+06eKknYbvLPd23s77kK2yT7nO7yfmP33uT/i7nbIUXVWXDC6i4JztaP2TYcFO8GB1bnhHQl3yba3u8zMOlnu9yT172oUhcB12TRSRxyg2URVIiaCNsOWlZSFBF8ZAnC0ni5r6pTZf3UC1dUAgM2vQP3tbv9b1nXgPq2auP2U0Ql12xVScCbQVlFxKLikUkIQsJPDTSLBzCgrQgJ14Cky75ShQ9BAZikdkqdErybcekrGXxXn366S90+7Xs/Bp8YnbOufJSTsHWl7JUHGeQPJrthKSJE2I84JLOw4doI0aAEbDzi7lGCD2Ju2jaygTzKig5qO2olAFPk9v6kY4RKDcCabmWJs88biUFZTtj09IZyiQkLvUiHiOQRwSQW8wvG7rsU4cymyY/FVZSUGnG4RQP6BKns4RpdqI8RiBrBJhbrpwjL6vNIP28C0pORDogJ0GculIv4jECeUTAzjHS0jbzj1DKysbzLig4kuQgZYRlOx47xgikRIA5RuhST5K59FN51SgoDgpn0w7qRhgjkGcE0vIu90Ki877vkHxyqQ+cNHEUqMRJA+LgGxNJOHUJYQ847Uqo2SU+gEaDDpvEyQNM41NOyL6gySOkDJA8QikLwe0P26aTbGTRhR1b36Y5luT7cOq67FIm+9p6lEkIXB744hW0/FJW4vLLWx8u+9M27YJGI79Ahccp8++hMFBSotAh6NApqU8eICZBPeC+xv6A9oE+Ui5t+PjUoZw0oeQTJ7R1yJeQMaBupdBlz8WT46TJs+hKWz5c2gMu9aRM8iUu+5APaB9MfEDXQX3qkbZ9AB/NJS9IVvyl7gpOApb2pgSMMVlcZnxy8gGTDkwcDWNIPfKlTJ6lyKdvhOQDyiblWfnsa0PaIR+0D6duCEQc7BbKs/tloe0xkmhbJsfJKpP6xAFtXBYJcElT38ennBD+0j5w2Xx86iTK0wqKRsqBGBgJBph2IBCyMTHRj4VEe5DxQB/q2jhoNKlb4Kz4K/uu4BYwKSNuQ9mHMvAk7tPBfHzNltm0r18oP8meLUuj5Zi2rkvm0pE84oCug4UkYWghSdvSt9zwSgoKzjFx6Kh0DDLqANqHXUR2X9C0waICzTF9kHYo99FpfMilDeKEtpz2QvmumNFGkow6EmbVD+lr27RpaYO4T8fFt3mkXRA8HCwiibOYbMg+EsJP0GiST7wgWaFDOhhWUlAcBM7IJLP5rglg8igSTgQQPDbaA8TBMUhLOfqQBs5m82yaeoChMqnnw9PsyXGTcMZN6rh4Ug48RMfuQ9rV18WjvoRJei5ZEo8yQN+BfIGMhWTrUW7z4TN4rubju3SdvHIKCoPKZJKGpUPQIU0cNCbKYgLORpvQoRw8eXaCLnjUtSHkaOQXqBV/ffykPuwt+/pwnx2pT3uEjBFpCX0yH1/2TcJD+ofocIwk3Swy6kpo47JQiEtIHP0kDl/Bs+2RhtxuSTJb19AhBQWjvoSQMonDuHSGuISYLIoFEI1jSAicdoHbMvRDI79AtafJd+mmyWzbSfouXRdP2gDOuNj8NFmI3GWzHJ7LRxdP2s4ql/rASRO3IQvGB219Sfv8hI6vJclMn5CC8hmXfAwkE0cODD5pWUQsJkL2p77vzCT16AN5Ppp8QluffECXzMWrtI/sT5xxIi1hkkzq5YknjZkkgw9pcpeO7EMckAf7gGYR+XDKCaGHRlukC9wwf6nrheUWFJxxJRmdlDLy6ARpWVzQl4UFmmMA5wEbwNFsWOAW/lImeTaepuOSu3i2XdCheq6+4DFGPnm1+CHj5qXjmyftuyB4vkMWjsRtfRk7yiSPOGSZW2hBwbgvSSgjhBNJzrCQoAccdu1iAk8emizSxAHRXH65eAXt0r9pej65i+/ilY5WPpUUzxCrlfbHGKE2QvV8NmV/4oA2Tp6EdiHZtNSlPemH5IEvW5KsqBdaUMUOAsEAriSSfJ8TspBgkjTsyQMy0jZOGlA2l09SbuMh+j4dHx9jJMlsH0j74kW5hFl0Zb8seNYxsurDF1cfyQNO2oWTJ2HWQrJjwvFsfipdSUFJ43AACSQh5Ewqn4O+QmI/QBcubQNHo16ByvY3tG+SXpIsmzfttX3xa69ZGaeScSrpC6/t/pIGTtqFk5cGGR3qyXHBq7hlKSgMaCeN5BGXkA6iH/i+xj7Q4wFdGycPkA06oS1JN0lm2w/RDdGx7SbFyNb10XnY8Nl28UPGC9GhbVuXtIQ2DtrH88kwnuzjG1/qUccLsxSUzwicspNH8ug0dIjTFvXY36bBpwx9fDjtSTl5WWEWG1l0s/qRpG/HMUm3WrI8fXDZkjwbJw1o42k040E90oAunpSn4lkLCgMmJZEtJ+1ylDI6SZoQ4xCnjj22TVPPhqF6sl+t+sgxbRzzb7RWiU+hfW09SRMHlDjiRJ7kS5w6gGyUk7ZhmrxEP8+kkbaIE2JQ4KQllDj1XFDygKOxb4Gqzt9Kxwjpn+lDq840E63W2j97PEkTT4IuGXmYKHFCybMDIXVsWTs65MNu10kzfP0k34WTlxXCB/aR/rh4Up4nXsux8vQ7q61MCZTVeKC+ywfJI14uhBvsa+PSRakj+V68kiTx9ZV8F57Ec8ngvOS7aO8EqyCwfanCEBWbzJwIFY9YHQP2PCTtwskjhFfECSXPxkGzSX3yUmGlyeHrL/lZcJ8uJiJlvomF6Pj6lsOv9XjwsawPupzJ1bBPyJxsHUkTJ7TjFMKX05X6kp+KV5oQSf1tmaRDcDgv9TgZF4+yesO8fSv7g613IHIc3xUDmyfpEBzuST3b3SSZrVtC55EASTZsWaW0dN62JWWNiLv8LfuDa8QJ5uxTUmxsWaW0dN22JWWpuOtDTu3kUEizY8ttGiZDefbwrn62TqSbJwIhCe3SCeG5dGRk0uRS14nnmYxptnxyF9/Fc00gVM/VN/IaNwKhie3Sc/EwUx+fUUiTUy8RViMh02wmyZNknEiIDnUjbP4IhCR6kk6SDNFJk2eKYLWSM8RuXjqZJhyVWyICIUWQl06mgIUkdSaDQjmL7Sy6YohEtBo2EweMwkwRCEn4TAa1chabWXSD/ahF0pU7Rrn9gicfFZs6AuUWRLn9goJVy6St1ljVshsUwKiUewSqlfDVslsSgHolY73GLZl8JFo+AjUpIhnFRkjsRvBBxiTizR2BmheRDFejJnOj+iVjF/H6R6CuxeOafislbivNxfVZtTqv4Yqj1QMe5xcjECMQIxAjECMQIxAjECMQIxAjECMQIxAjECMQIxAjECMQIxAjECMQIxAjECMQIxAjECMQIxAjECMQIxAjECMQIxAjECMQIxAjECMQIxAjECOQGIH/B1yWUjYMQ1/AAAAAAElFTkSuQmCC;" vertex="1" parent="1">
          <mxGeometry x="619" y="285" width="121.14" height="80" as="geometry" />
        </mxCell>
        <mxCell id="VCE-eFX-D-IUiVNwlB2O-12" value="" style="shape=image;verticalLabelPosition=bottom;labelBackgroundColor=default;verticalAlign=top;aspect=fixed;imageAspect=0;image=data:image/png,iVBORw0KGgoAAAANSUhEUgAAANQAAACMCAYAAAAEA4eCAAAAAXNSR0IArs4c6QAAAIRlWElmTU0AKgAAAAgABQESAAMAAAABAAEAAAEaAAUAAAABAAAASgEbAAUAAAABAAAAUgEoAAMAAAABAAIAAIdpAAQAAAABAAAAWgAAAAAAAACQAAAAAQAAAJAAAAABAAOgAQADAAAAAQABAACgAgAEAAAAAQAAANSgAwAEAAAAAQAAAIwAAAAAplnTpQAAAAlwSFlzAAAWJQAAFiUBSVIk8AAAHrxJREFUeAHtXQncXcPZn2yIXYQEIRJiSZQSWz+RoDQlal8qPpX6aFMtbRX9tdqiLapo1dJagrZaPhqpfRfEGkVJPrvYI5JKiOyyffOf+/5vnjvvzDlz7j13fWd+v/M+6zzzzHOf5z3LPXdGqdhiBGIEYgRiBGIEYgRiBGIEYgRiBGIEYgRiBGIEYgTqEIFOdRgz7yFbYQ55x6SZ7S1vZucbMRkb0adm/oxb3feGKsBGSN5G8KHVk64jza+uBVavZK7XuB0pseJclap5cdUysas1VrXsxoSsTwSqVQTVslsSpVokY7ljlNuvZIKRaNkIlFsg5fYLCmQ1kzaL7Sy6QROzlKpt3xoukp4IVDWZ9ZhZ7GfR9UynPbtaiRZiNy+d9rOKnFaPQEgx5KWTKZYhSZ3JoFZOs5kkT5LRjxAd6kbY/BGotDDS+qfJM0Uwz+RMs+WTu/gunmtioXquvpHXuBEITXKXnouHmfr4jEKanHqJMK+ETLNjy20aToby7Am5+tk6kW6eCIQktksnhOfSkZFJk0tdJ55HMibZsGWV0vYkbHu2PNLNGYG0xLblldIySrYtKUvFK03IpP62TNIhOJyXepyMi0dZhK0XAVeC2zxJh+CIktSzo5Yks3VL6EqT09df8rPgPl04LWUlk2gj0uSuPpHXOBFIS2JbLmnihJhVVlxGQvaV/FS8kiT09ZV8F57Ec8kwCcl30akTjQpNGQE7sSXtwskjxKSJE0qejYNmk/rkpUI7UVM7tCn4+km+CycvK8Sw7CN9dPGkPOLNGQFXMkse8XIhosK+Ni4jJnUk34uXk5C+PpJPnBAOACctocSp54KSBxyNfQtU/NsqEbATWdLEk6BLRh5iRJxQ8uwYSh1b1o4uJyFdfSSPeBI0snGTli9o51FkxAhUGIFDtu3Uvc0EioEFkQbRhTpt3Q1w8aS8BO9aQqUTLBKfpi0nDWjjpH22Ij9GoNwIdNYdXYUAHvJOymzaHjNNXqKPgSttrsKQPOCkiRNWOnbsHyPgigDzixA6Eidt94VORS1LQbkGkzziEgJ30ZJf0QRi5xgBRwSYXxJCzUWTTzPQsZuLZ+sYOusln9OIZnJACYmjD3DXAVlsMQJ5R0DmnrTNSz3K5SUgeJTLPpnwSgqKTtkDSj5w14Ezo9SzbUQ6RqCSCPAeapnHCAsHOUhcqvr4UseJhxZUUvJTRoiBgPsOFpPUdzoXmTECZUaAuYVc8xUVTLOYoA+cEDK7JcmKuqEFVezQhtBhF9+WgXYdmGxsMQLViIAsJDsfWUQYlzLJoz+QufiUO2FeSU3HOAhoHuARx3jACSGLLUYg7wjIHGOugYfGXCRd4Bb4xMuGIQVlDywHkzKJQwd00hEythwr4jECoRGQReTLQWlL5q7EpQ7wJJnRLSepk4xCxsMMIJwgX06WOhHGCOQZAV+ugc9GHcmjjDBJRp0SWO49lDTiG1Q6bOMoqnKKWY4b8RgBXwSYW3ggIXMP+sxX1/0RZC4++gU1DhykbCnRMbCl08TJJyRfQshiC4jA+1NeVlf86jtq3LXnB2h3eBWZYxJHYECjST7xgmSFDulgWElBpQ2S5Lg9gTRbDSVfOH+eGnv1uWrsVeeoRQvme317Zvxt6sbLz1SvvfiUV8cluOznx6lTDt9evfDUA0XxO69PUvf/4wr1wNirijwgLt0ShY5JML9cEBFhbuYenbRLvrSBfXLyAZOO3CdUC4Oz/vOhuuHSM8xQQ/Y7SvXu09857D03/VG9+NT9auH8OWrL7b5U1Jkze5Ypsh7rbaj6b719kQ9kwfy5avxt1xnepKcfVF/80j4lckkk6b4+aaL67NOP1aDBQ1X31daQ3ToCnpRzkOGyjtCOh49PvUR5WkHRCCGMJTXIqSNx9iEPsJpnR47XkHDiQ/9UfzzreLXJgC+oi2+ZVOJj91VXV3sfcrz6+KP31c57Hlgis4kk3Qt+dJiaOf0DdfrvblG77n2I3bXVaeQWi4b5yDkzBykHH7ivQT9JXtIva0Gxs3SSDto8qUsd8IhLfepGqCNw4llXB8chi26w0eZXtHNM0iwO8CTOWUseccpSYbkFlWpYK8hJ+PAQOy2jM3/uZ+qRO67Xl3tPmjnN+XSmuvvGywy+Vo/11W7DjzD4hLtuUP+Z9q7afd+j1PobbWp4vj+27ov6MnHq26+aS0f0ef7xexQuUdF2HLq/wr3Ye2/+n7kU3HqHIYYv/0x+5mH1+qSn1UB9qbj19rtJUTPhvnyT/MzFEhKAahQUnPY1ygh9ei3Jf1cn85jzvlec2yc60cecd5Kh1163d7Ggbr7yl+rDd15T6/bqk1pQtu64a36jJk98qDjGg+PGFPEuXbupV557TE24+++qT/+B6pJbXyrKiFx+5v+oGVPfVkeMPrOZCwrTYY4RcooSQpZrYeVdUHSekM6DJo84aeq0PNx0y+3UN065QL0xeaJ66oGx+mHBmuqwEwoPN1A8ebSDRp2mH2R8Rd0y5lw1f+5sff90qBqwzc7G9Pa7fVX17L2xKagP3npZvf3qC6rfVl8sDosHGSgmNJ4ti8LmQuwcIy1nAR6KiVDKysbzLijpCCcBiOaiC5IO8hdP2w4adap6cNw1pqDW27CvOvi403Od/fa7DVc47r7xUlNQQ/cbWfJQAoWLs+GnMz9SE+76e0lBPXHfTcaX/lvvoDbebGCuftXYWFLOMQ9zPTNxfpU8aaPTtGXT5ANSJiFxqRfxKkegS5cuatj+/21GeeyeG9WyZYVfNyxfvlw9cd/Nhj90REFeZVeqaR65xfyyoWtc6lBm0+SnwkoKymc8zZk0uc9u5OcUgT0OONZYmjVjqnrp2UcN/srzjyvQnTt3Ubvr79ZapKXlWpo8cxjyKijbMUkTJ4STwCWd2fF6dujSZcWV8rzPPvG6smDeZ0bWtdvKXp16CPoO2Eb1HzjYDI3LPjRe7m27695qnZ69Da+J/9j5xVwjxNQk7qLLmn6lBWU7JZ2AzJbbtNRvGhw39l27rmT8/fDdN7x+T3vvTSPbaNMtvTr1Eux14CgzNB6O4FWqJ+8fa2heDtbLryqMa+ecKy/lsLa+lKXiWQrKN5CPLweXOsAlLfWaAu/StavaoO8A4+t9N1/h9Bnv8c3Rr/6gbbz5oBKdTp0LYZ89c0YJP0+iU6e2MWa5x8B3XPingCeBf/ndaWr2rOlq5e6rqV32OjhPN+ppy86zkJzz6fj47eaXpaDada6QEexkheNUpfs+h55g7L783KPmLXC8V8f2/OP3at5oQw7acQ/92HonigzEl7hoSGJ80Yq2+PNFBub1h2NMfma8Wrp0afGg/TXWXlcNHra/Ie+7+U8GophWWXU1qjQzrFtu5V1QSRNJkjXdh7ffyJPUVtsPMX7jLfBjdltHfXf/LdQxQ3qoX5+4r3ksvfqaPdTon7c/g+GxNO+rTj1ysPr+wduokw7cOtcY8GXcJ+//hxr91X7qm8PWVxPu/FvJGHu2PZwgswUv9zi1pNxLkrF/MEwqqLwGystO8KRqodhZX7b9csx4dcwPzldr9eilli1doqa994bCQ4pVV19L7anvUS69/VW1Ub/290891ttAHf+TS1S3lVYx/d6f8pL+bqhX0e2u+o0GNLzZwObiQebjH/atM9QW2xbecJ85/X01b86nas0e69GcgTsM2df4DgLfTeGBRIu3vHLRa8cr0IG1ZZIG7jpQoOAD8ujShgOW4HqzAP8dvVZupoafZOAtg3X0TzJQMCHt80UL1UfvTzFF0XuTzfUj68L/t8WLP1efL1ygVltjrRIz8+bMViut0l1161Z4IAKhT5cdZ834UF9azlA9N9hErbFWD7INxHdPJ44YoKZ/MEV97Zgfqm+e9rsSebMSerMA3OAubTvwRZuNg8cDX/ACB3Qdmm0aZLLZtJGteP4rVauLy0Ks7kg1tI5ktRM2bfiVVl5FbWI9sEAfFIwsGtqxCyxJl316rK8LXB+uNnnieFNMkA3b/xiXSrPy6pZjhX+J2cIGZ2NrgQg8cMvVZhYbbzao3Q8dW2B6eUwhc66XU1B5OBpt1DkCuNzEDx3Rhn2tpc5OdY1sPS756jrhOHghArjcPPua8eZVo83a3pqIsak8AtUuqMynzMqnFC2ERqCJf0AYOkWXXlVzMl7yuUIeeTECZUagVgVV1f8KZc49dutYEahJDtaqoDrWRxdn22EjEAuqw370ceLViEAsqGpENdrssBGIBdVhP/o48WpEIBZUNaIabXbYCMSC6rAffZx4NSJQ7S92q+Fz3W1Oefl59a9Hbjdvhw8dcbTqvfFmdfcpOtAYEYgFVcbncN0Fpyj8UhcN60Z8/9y/lmGl9l2Sdv2ovTetOWK85Mv4uc748F1dTBOKvfCCadIeUUXFBkDg67nf219d8rNjG8Cb1nQhFlTGz/Wxu2/QPZbrlVUHqc56ObGFC+aqp8cX3trOaCqqt2AE4iVfxg/10bZ1GUYcfbL5+cO/n7jXrNUwTN9L+RoWbXnthSfVTL2Q5Jrr9DTri1O3r94jatCOw0jqn6rPVs9NuEuvO/5vNV+v69d3wLb6p+lfVn36bVXUATJj6jsKK79ifQosvTxJ/1gQG7Thp+7gYW3yVVdf0/QJ3fUDyi89O0Hbesjs/rH6muuobfQiMzvu8bXir4mNwfjHG4Gk95tsGWkJgcsDZzzQgDjkT95J86fwXfRP4F/XOk3T8DDitK8PNms9XDt+mnpWJ/6l+vIJq62OeWhqyboQmNTSJUvUeScfqLeUuds7x8F6i5kzLrvDyF/VRff7H480ySw7YLmvUfrn6fsd9d0i+7F7/lfrHqV2GLKfWSvikdv/UpQB2ajf1ursMQ+Zn+NjVdgzRu1eIieBtSSufXiaIcecd7JZE50ywlGnXqQO+MYpJBse6p/Ab6Gd5M/eCflTeAn503dC/KxdHpgraDTCAtWeNvx4hmJ4AuCEu/5mtLbbdR+FZbh2/fLB6kq9XNjnixaox+6+Ua/L8IMSK7f99SJTTFi05bjTLzY/RccZ7tE7rzd6hx7/U312+arB8cDgHH1/g0VesDcTdtFYRe9m+LAulIdv+7PZ9gYrGW02cIeSMVism275RYUnjh9Pe8/sOTX17VfUrdf9Vo/7exWy68cbk58xxYR/Dsf9+A8Ke0d9pB+43GuWGMP/yNhCIhALKiRKWgdr26Fo0Ibs+3UDsZvGjnptOyzV9aguNrug/q0v9dAO//bP1V4HjTL4dnrPXDzUwIZqKJiBgwtnjnFjzjPFhDPLWVc9qJcZK6x4tM1Oe6gpLz1rNkm77S8XqlPOxz1cadt5z4PUqRfeXOyzRC/ycv/YK82jfRRUyK4fb+lLTDQUH8+E/TT+pX0OLR0sUokRwGVYbAERwP0JtoDB0l+77HVQsccQvQIr2lsvP6c+eOuVIh8I9slF46KTwDt16qQGfGFnoGquWBcd9y1oww//drEwDEP/4Vns/Tfbb5C2Ts8NSooJfVDkaJ/8p3ApZ4iUP1heGu2d11402+1gRaTYskcgFlRgzPgwYvDQESW7qg/efT+zDh/MUIcmN9BLg6HhySC3jcGlHW780TbRTwrZuA76jZf/Qn17+KYlR+GyS5mHGtQnxLJiPJuRxwLGpSjOrCENa/LhYcayZUvNhtrfO2Ardcf1F6sF8+aEdI86bRGo1SVfU/+7w2L6E9sejT/z8G1q9L79SxJo4YJ5hsZOFiNP+rU5C4Gxu97s7IUn71N4EnjCPhubp3m43MMSzD17b6J2bjvTYRnmhfMLidtVLyHWve3pHAchzZ0IyfdBPM7P2rBs2a+ufUShoLEa0rR3X1fXXfBDhcvMn156RyusilSTHMwe+WyfVE0mkc2l7NoopkVtRYMVYrltpm0J90Uv6z1sB+041Ige+ue1BuJJGvbTfVw/5kbDeuffOuPy4kKW3VZa2VwWYkHKUT+6UK86e6zRq/Uf3GvhnuvrJ56t4PtNfzrL7BmFfXcvuvn5WrtTrfGqmpPVLqhqBaWmdnkpt9OeB6rTLxrbbuwlSxarE/buo++JZpmHEygofPfzyvOP6bNVZ/XHu95Uc2bP1LtxzFS9+vQvFpI01KvPZmaFVyzuX62CCt31A99f4QELtiz97Q8PUdhsG18BYNeR2JIjEO+hkuOjPvn4I/OFKdSGDD/SJBUSSx4r6/uY//rK4cYSnvjhEg7rkuPMs3z5MvXjo3dR2J0dm5rd9fc/6CdwV6kp+iGGbENHjDTkBH2/xb2aKEcy4zuv9xwPJagTAnlv5dr1Y/ytfzZPK+XDiDmffGzMrq5XxY3FFBJhvdZ8mFqJFk6ZHeaLCTwqx436Sit3VzvtcUBJICSB+yU8qp6v31R49tE7zeNm7PB+w2U/U9gMAIfd8KXu6b+/xSy7PPzw0eqBsVerd9+YpC489XDzatOGfbdQC/S91Zv6sTnsjjzpHOfSzbZdH81dP5YsXqSw6wc2glu0cL664p63dMHeqZ5+8Ba13gZ91eZ6+x28cYGlmtFabJlmX3hc/MyXh/U4Q8FJHq5JNBQPl21ou+gvcZP2TsL3Setv1M/oYt9aPBK/7x9XGnqvg45TZ171gPrJJber7559jXlYAcFzOolRRGg4A5x3/ZNqxMiT9ThrmALEvRse12PjADw6l4/rfbtuwBZleDiBx/RsSbt+DD9itC6wrcz3Y9jVEON204thHqi/YD7mB7+hiWaBzK/MBVHpBFdEu70lWyZp4K4DBQo+IA+8agRcQuB49ajhd99YsnixeSCxqt4JQyan9r9doy6+sMWTsqvOOVH16T9QXTxucrt34U4/amd95vmX2uewb6nv/KJQeNLgzOlT1Sz9IAPv0+GsYT8ah65rNw7awONuFBQuR+3m2/UDetitA+Pi7Q7cQ7k2LbDtNRpt7b6B7w3wapENwcOBoiOUhUhci02zi9OmjVI5l3xt9oOBc+Dg3nVWRCJ37bZ2kBdSd67+vgnt05nT1Wf6XmTtddcv2gCNezM0nBVcbd1eGykcSc21Gwf18cTO13y7fkA/abcOn70m4lc9F5MKCoPLs1JI3JL6VH0yIQ7WSucLu+ylOl3eWc3VT/dOPXIH/XbELgpf9OLR+MTxt5p7Ipx59ogL9dfiI0nKvSSZzzdvn7SCkXIbB+06eKknYbvLPd23s77kK2yT7nO7yfmP33uT/i7nbIUXVWXDC6i4JztaP2TYcFO8GB1bnhHQl3yba3u8zMOlnu9yT172oUhcB12TRSRxyg2URVIiaCNsOWlZSFBF8ZAnC0ni5r6pTZf3UC1dUAgM2vQP3tbv9b1nXgPq2auP2U0Ql12xVScCbQVlFxKLikUkIQsJPDTSLBzCgrQgJ14Cky75ShQ9BAZikdkqdErybcekrGXxXn366S90+7Xs/Bp8YnbOufJSTsHWl7JUHGeQPJrthKSJE2I84JLOw4doI0aAEbDzi7lGCD2Ju2jaygTzKig5qO2olAFPk9v6kY4RKDcCabmWJs88biUFZTtj09IZyiQkLvUiHiOQRwSQW8wvG7rsU4cymyY/FVZSUGnG4RQP6BKns4RpdqI8RiBrBJhbrpwjL6vNIP28C0pORDogJ0GculIv4jECeUTAzjHS0jbzj1DKysbzLig4kuQgZYRlOx47xgikRIA5RuhST5K59FN51SgoDgpn0w7qRhgjkGcE0vIu90Ki877vkHxyqQ+cNHEUqMRJA+LgGxNJOHUJYQ847Uqo2SU+gEaDDpvEyQNM41NOyL6gySOkDJA8QikLwe0P26aTbGTRhR1b36Y5luT7cOq67FIm+9p6lEkIXB744hW0/FJW4vLLWx8u+9M27YJGI79Ahccp8++hMFBSotAh6NApqU8eICZBPeC+xv6A9oE+Ui5t+PjUoZw0oeQTJ7R1yJeQMaBupdBlz8WT46TJs+hKWz5c2gMu9aRM8iUu+5APaB9MfEDXQX3qkbZ9AB/NJS9IVvyl7gpOApb2pgSMMVlcZnxy8gGTDkwcDWNIPfKlTJ6lyKdvhOQDyiblWfnsa0PaIR+0D6duCEQc7BbKs/tloe0xkmhbJsfJKpP6xAFtXBYJcElT38ennBD+0j5w2Xx86iTK0wqKRsqBGBgJBph2IBCyMTHRj4VEe5DxQB/q2jhoNKlb4Kz4K/uu4BYwKSNuQ9mHMvAk7tPBfHzNltm0r18oP8meLUuj5Zi2rkvm0pE84oCug4UkYWghSdvSt9zwSgoKzjFx6Kh0DDLqANqHXUR2X9C0waICzTF9kHYo99FpfMilDeKEtpz2QvmumNFGkow6EmbVD+lr27RpaYO4T8fFt3mkXRA8HCwiibOYbMg+EsJP0GiST7wgWaFDOhhWUlAcBM7IJLP5rglg8igSTgQQPDbaA8TBMUhLOfqQBs5m82yaeoChMqnnw9PsyXGTcMZN6rh4Ug48RMfuQ9rV18WjvoRJei5ZEo8yQN+BfIGMhWTrUW7z4TN4rubju3SdvHIKCoPKZJKGpUPQIU0cNCbKYgLORpvQoRw8eXaCLnjUtSHkaOQXqBV/ffykPuwt+/pwnx2pT3uEjBFpCX0yH1/2TcJD+ofocIwk3Swy6kpo47JQiEtIHP0kDl/Bs+2RhtxuSTJb19AhBQWjvoSQMonDuHSGuISYLIoFEI1jSAicdoHbMvRDI79AtafJd+mmyWzbSfouXRdP2gDOuNj8NFmI3GWzHJ7LRxdP2s4ql/rASRO3IQvGB219Sfv8hI6vJclMn5CC8hmXfAwkE0cODD5pWUQsJkL2p77vzCT16AN5Ppp8QluffECXzMWrtI/sT5xxIi1hkkzq5YknjZkkgw9pcpeO7EMckAf7gGYR+XDKCaGHRlukC9wwf6nrheUWFJxxJRmdlDLy6ARpWVzQl4UFmmMA5wEbwNFsWOAW/lImeTaepuOSu3i2XdCheq6+4DFGPnm1+CHj5qXjmyftuyB4vkMWjsRtfRk7yiSPOGSZW2hBwbgvSSgjhBNJzrCQoAccdu1iAk8emizSxAHRXH65eAXt0r9pej65i+/ilY5WPpUUzxCrlfbHGKE2QvV8NmV/4oA2Tp6EdiHZtNSlPemH5IEvW5KsqBdaUMUOAsEAriSSfJ8TspBgkjTsyQMy0jZOGlA2l09SbuMh+j4dHx9jJMlsH0j74kW5hFl0Zb8seNYxsurDF1cfyQNO2oWTJ2HWQrJjwvFsfipdSUFJ43AACSQh5Ewqn4O+QmI/QBcubQNHo16ByvY3tG+SXpIsmzfttX3xa69ZGaeScSrpC6/t/pIGTtqFk5cGGR3qyXHBq7hlKSgMaCeN5BGXkA6iH/i+xj7Q4wFdGycPkA06oS1JN0lm2w/RDdGx7SbFyNb10XnY8Nl28UPGC9GhbVuXtIQ2DtrH88kwnuzjG1/qUccLsxSUzwicspNH8ug0dIjTFvXY36bBpwx9fDjtSTl5WWEWG1l0s/qRpG/HMUm3WrI8fXDZkjwbJw1o42k040E90oAunpSn4lkLCgMmJZEtJ+1ylDI6SZoQ4xCnjj22TVPPhqF6sl+t+sgxbRzzb7RWiU+hfW09SRMHlDjiRJ7kS5w6gGyUk7ZhmrxEP8+kkbaIE2JQ4KQllDj1XFDygKOxb4Gqzt9Kxwjpn+lDq840E63W2j97PEkTT4IuGXmYKHFCybMDIXVsWTs65MNu10kzfP0k34WTlxXCB/aR/rh4Up4nXsux8vQ7q61MCZTVeKC+ywfJI14uhBvsa+PSRakj+V68kiTx9ZV8F57Ec8ngvOS7aO8EqyCwfanCEBWbzJwIFY9YHQP2PCTtwskjhFfECSXPxkGzSX3yUmGlyeHrL/lZcJ8uJiJlvomF6Pj6lsOv9XjwsawPupzJ1bBPyJxsHUkTJ7TjFMKX05X6kp+KV5oQSf1tmaRDcDgv9TgZF4+yesO8fSv7g613IHIc3xUDmyfpEBzuST3b3SSZrVtC55EASTZsWaW0dN62JWWNiLv8LfuDa8QJ5uxTUmxsWaW0dN22JWWpuOtDTu3kUEizY8ttGiZDefbwrn62TqSbJwIhCe3SCeG5dGRk0uRS14nnmYxptnxyF9/Fc00gVM/VN/IaNwKhie3Sc/EwUx+fUUiTUy8RViMh02wmyZNknEiIDnUjbP4IhCR6kk6SDNFJk2eKYLWSM8RuXjqZJhyVWyICIUWQl06mgIUkdSaDQjmL7Sy6YohEtBo2EweMwkwRCEn4TAa1chabWXSD/ahF0pU7Rrn9gicfFZs6AuUWRLn9goJVy6St1ljVshsUwKiUewSqlfDVslsSgHolY73GLZl8JFo+AjUpIhnFRkjsRvBBxiTizR2BmheRDFejJnOj+iVjF/H6R6CuxeOafislbivNxfVZtTqv4Yqj1QMe5xcjECMQIxAjECMQIxAjECMQIxAjECMQIxAjECMQIxAjECMQIxAjECMQIxAjECMQIxAjECMQIxAjECMQIxAjECMQIxAjECMQIxAjECMQIxAjECOQGIH/B1yWUjYMQ1/AAAAAAElFTkSuQmCC;" vertex="1" parent="1">
          <mxGeometry x="619" y="420" width="121.14" height="80" as="geometry" />
        </mxCell>
        <mxCell id="VCE-eFX-D-IUiVNwlB2O-13" value="" style="edgeStyle=none;orthogonalLoop=1;jettySize=auto;html=1;rounded=0;" edge="1" parent="1">
          <mxGeometry width="100" relative="1" as="geometry">
            <mxPoint x="80" y="320" as="sourcePoint" />
            <mxPoint x="120" y="320" as="targetPoint" />
            <Array as="points" />
          </mxGeometry>
        </mxCell>
        <mxCell id="VCE-eFX-D-IUiVNwlB2O-18" value="" style="edgeStyle=none;orthogonalLoop=1;jettySize=auto;html=1;endArrow=classic;startArrow=classic;endSize=8;startSize=8;rounded=0;" edge="1" parent="1">
          <mxGeometry width="100" relative="1" as="geometry">
            <mxPoint x="443.9" y="267" as="sourcePoint" />
            <mxPoint x="443.9" y="217" as="targetPoint" />
            <Array as="points" />
          </mxGeometry>
        </mxCell>
        <mxCell id="VCE-eFX-D-IUiVNwlB2O-19" value="ACTION,&amp;nbsp;&lt;div&gt;Business Logic&lt;/div&gt;&lt;div&gt;INTEN 1, ..., N&lt;/div&gt;" style="text;html=1;align=center;verticalAlign=middle;resizable=0;points=[];autosize=1;strokeColor=none;fillColor=none;" vertex="1" parent="1">
          <mxGeometry x="625" y="111" width="100" height="60" as="geometry" />
        </mxCell>
        <mxCell id="VCE-eFX-D-IUiVNwlB2O-20" value="Costum predefined Q-A" style="text;html=1;align=center;verticalAlign=middle;resizable=0;points=[];autosize=1;strokeColor=none;fillColor=none;" vertex="1" parent="1">
          <mxGeometry x="604.5699999999999" y="260" width="150" height="30" as="geometry" />
        </mxCell>
        <mxCell id="VCE-eFX-D-IUiVNwlB2O-21" value="&lt;div&gt;fallback&lt;/div&gt;LLM with RAG" style="text;html=1;align=center;verticalAlign=middle;resizable=0;points=[];autosize=1;strokeColor=none;fillColor=none;" vertex="1" parent="1">
          <mxGeometry x="629.5699999999999" y="385" width="100" height="40" as="geometry" />
        </mxCell>
        <mxCell id="VCE-eFX-D-IUiVNwlB2O-22" value="" style="edgeStyle=none;orthogonalLoop=1;jettySize=auto;html=1;rounded=0;exitX=0.913;exitY=0.038;exitDx=0;exitDy=0;exitPerimeter=0;" edge="1" parent="1" source="VCE-eFX-D-IUiVNwlB2O-5">
          <mxGeometry width="100" relative="1" as="geometry">
            <mxPoint x="515" y="200" as="sourcePoint" />
            <mxPoint x="625" y="200" as="targetPoint" />
            <Array as="points" />
          </mxGeometry>
        </mxCell>
        <mxCell id="VCE-eFX-D-IUiVNwlB2O-23" value="" style="edgeStyle=none;orthogonalLoop=1;jettySize=auto;html=1;rounded=0;" edge="1" parent="1">
          <mxGeometry width="100" relative="1" as="geometry">
            <mxPoint x="529.8600000000001" y="330" as="sourcePoint" />
            <mxPoint x="615" y="330" as="targetPoint" />
            <Array as="points" />
          </mxGeometry>
        </mxCell>
        <mxCell id="VCE-eFX-D-IUiVNwlB2O-24" value="" style="edgeStyle=none;orthogonalLoop=1;jettySize=auto;html=1;rounded=0;exitX=1;exitY=0.75;exitDx=0;exitDy=0;entryX=0;entryY=0.25;entryDx=0;entryDy=0;" edge="1" parent="1" source="VCE-eFX-D-IUiVNwlB2O-5" target="VCE-eFX-D-IUiVNwlB2O-12">
          <mxGeometry width="100" relative="1" as="geometry">
            <mxPoint x="575" y="563" as="sourcePoint" />
            <mxPoint x="685" y="460" as="targetPoint" />
            <Array as="points" />
          </mxGeometry>
        </mxCell>
        <mxCell id="VCE-eFX-D-IUiVNwlB2O-26" value="" style="edgeStyle=none;orthogonalLoop=1;jettySize=auto;html=1;rounded=0;" edge="1" parent="1">
          <mxGeometry width="100" relative="1" as="geometry">
            <mxPoint x="115" y="310" as="sourcePoint" />
            <mxPoint x="80" y="310" as="targetPoint" />
            <Array as="points" />
          </mxGeometry>
        </mxCell>
        <mxCell id="VCE-eFX-D-IUiVNwlB2O-27" value="Confidence score --&amp;gt; Action, QA, or fallback" style="text;html=1;align=center;verticalAlign=middle;resizable=0;points=[];autosize=1;strokeColor=none;fillColor=none;" vertex="1" parent="1">
          <mxGeometry x="320" y="40" width="260" height="30" as="geometry" />
        </mxCell>
        <mxCell id="VCE-eFX-D-IUiVNwlB2O-28" value="NVIDIA conversational agents" style="text;html=1;align=center;verticalAlign=middle;resizable=0;points=[];autosize=1;strokeColor=none;fillColor=none;" vertex="1" parent="1">
          <mxGeometry x="349.86" y="510" width="180" height="30" as="geometry" />
        </mxCell>
      </root>
    </mxGraphModel>
  </diagram>
</mxfile>
